# MagicaVoxel @ Ephtracy

# group
o 

# material
mtllib grass_1.mtl
usemtl palette

# normals
vn -1 0 0
vn 1 0 0
vn 0 0 1
vn 0 0 -1
vn 0 -1 0
vn 0 1 0

# texcoords
vt 0.693359 0.5
vt 0.701172 0.5
vt 0.853516 0.5
vt 0.857422 0.5

# verts
v -1.6 -1.6 1.6
v -1.6 -1.6 -1.6
v -1.6 -1.5 1.6
v -1.6 -1.5 -1.6
v -1.6 -1.4 1.6
v -1.6 -1.4 -1.6
v 1.6 -1.6 1.6
v 1.6 -1.6 -1.6
v 1.6 -1.5 1.6
v 1.6 -1.5 -0.4
v 1.6 -1.5 -0.7
v 1.6 -1.5 -1.6
v 1.6 -1.4 1.6
v 1.6 -1.4 -0.4
v 1.6 -1.4 -0.7
v 1.6 -1.4 -1.6
v -1.6 -1.6 1.6
v -1.6 -1.5 1.6
v -1.6 -1.4 1.6
v -1.3 -1.5 1.6
v -1.3 -1.4 1.6
v -1.1 -1.5 1.6
v -1.1 -1.4 1.6
v 1.6 -1.6 1.6
v 1.6 -1.5 1.6
v 1.6 -1.4 1.6
v -1.6 -1.6 -1.6
v -1.6 -1.5 -1.6
v -1.6 -1.4 -1.6
v 1.6 -1.6 -1.6
v 1.6 -1.5 -1.6
v 1.6 -1.4 -1.6
v -1.6 -1.6 1.6
v 1.6 -1.6 1.6
v -1.6 -1.6 -1.6
v 1.6 -1.6 -1.6
v -1.6 -1.4 1.6
v -1.3 -1.4 1.6
v -1.1 -1.4 1.6
v 1.6 -1.4 1.6
v 0.1 -1.4 1.5
v 0.4 -1.4 1.5
v -1.3 -1.4 1.4
v -1.1 -1.4 1.4
v 0.4 -1.4 1.4
v 0.6 -1.4 1.4
v 0.1 -1.4 1.2
v 0.4 -1.4 1.2
v 0.6 -1.4 1.2
v 1.3 -1.4 1.2
v 1.5 -1.4 1.2
v -0.7 -1.4 1.1
v -0.5 -1.4 1.1
v 1.3 -1.4 1
v 1.5 -1.4 1
v -0.7 -1.4 0.9
v -0.5 -1.4 0.9
v -0.5 -1.4 0.5
v -0.2 -1.4 0.5
v 0.5 -1.4 0.5
v 0.7 -1.4 0.5
v -1.3 -1.4 0.4
v -1 -1.4 0.4
v 0.5 -1.4 0.3
v 0.7 -1.4 0.3
v -0.5 -1.4 0.2
v -0.2 -1.4 0.2
v -1.3 -1.4 0.1
v -1 -1.4 0.1
v -1.1 -1.4 0
v -1 -1.4 0
v -0.8 -1.4 0
v -1.3 -1.4 -0.1
v -1.1 -1.4 -0.1
v -1.1 -1.4 -0.3
v -0.8 -1.4 -0.3
v -0.4 -1.4 -0.4
v -0.1 -1.4 -0.4
v 1.3 -1.4 -0.4
v 1.6 -1.4 -0.4
v 0 -1.4 -0.5
v 0.2 -1.4 -0.5
v -0.4 -1.4 -0.7
v -0.1 -1.4 -0.7
v 0 -1.4 -0.7
v 0.2 -1.4 -0.7
v 1.3 -1.4 -0.7
v 1.6 -1.4 -0.7
v -1.3 -1.4 -0.9
v -1.1 -1.4 -0.9
v 1.1 -1.4 -1
v 1.3 -1.4 -1
v -1.3 -1.4 -1.1
v -1.1 -1.4 -1.1
v 0.4 -1.4 -1.1
v 0.6 -1.4 -1.1
v 1.1 -1.4 -1.2
v 1.3 -1.4 -1.2
v 0.4 -1.4 -1.4
v 0.6 -1.4 -1.4
v -1.6 -1.4 -1.6
v 1.6 -1.4 -1.6

# faces
f 3/1/1 2/1/1 1/1/1
f 4/1/1 2/1/1 3/1/1
f 5/2/1 4/2/1 3/2/1
f 6/2/1 4/2/1 5/2/1
f 7/1/2 8/1/2 9/1/2
f 9/1/2 8/1/2 10/1/2
f 10/1/2 8/1/2 11/1/2
f 11/1/2 8/1/2 12/1/2
f 9/2/2 10/2/2 13/2/2
f 10/1/2 11/1/2 14/1/2
f 13/2/2 10/2/2 14/2/2
f 11/2/2 12/2/2 15/2/2
f 14/1/2 11/1/2 15/1/2
f 15/2/2 12/2/2 16/2/2
f 20/1/3 18/1/3 17/1/3
f 20/2/3 19/2/3 18/2/3
f 21/2/3 19/2/3 20/2/3
f 22/1/3 20/1/3 17/1/3
f 22/1/3 21/1/3 20/1/3
f 23/1/3 21/1/3 22/1/3
f 24/1/3 22/1/3 17/1/3
f 25/2/3 23/2/3 22/2/3
f 25/1/3 22/1/3 24/1/3
f 26/2/3 23/2/3 25/2/3
f 27/1/4 28/1/4 30/1/4
f 28/2/4 29/2/4 31/2/4
f 30/1/4 28/1/4 31/1/4
f 31/2/4 29/2/4 32/2/4
f 35/1/5 34/1/5 33/1/5
f 36/1/5 34/1/5 35/1/5
f 39/2/6 40/2/6 41/2/6
f 41/2/6 40/2/6 42/2/6
f 37/2/6 38/2/6 43/2/6
f 38/1/6 39/1/6 43/1/6
f 39/2/6 41/2/6 44/2/6
f 43/1/6 39/1/6 44/1/6
f 42/2/6 40/2/6 45/2/6
f 41/1/6 42/1/6 45/1/6
f 45/2/6 40/2/6 46/2/6
f 44/2/6 41/2/6 47/2/6
f 43/2/6 44/2/6 47/2/6
f 41/1/6 45/1/6 47/1/6
f 45/3/6 46/3/6 48/3/6
f 47/1/6 45/1/6 48/1/6
f 46/2/6 40/2/6 49/2/6
f 48/3/6 46/3/6 49/3/6
f 49/2/6 40/2/6 50/2/6
f 50/2/6 40/2/6 51/2/6
f 47/2/6 48/2/6 52/2/6
f 43/2/6 47/2/6 52/2/6
f 48/2/6 49/2/6 52/2/6
f 49/2/6 50/2/6 52/2/6
f 52/2/6 50/2/6 53/2/6
f 50/1/6 51/1/6 54/1/6
f 53/2/6 50/2/6 54/2/6
f 51/2/6 40/2/6 55/2/6
f 54/1/6 51/1/6 55/1/6
f 52/3/6 53/3/6 56/3/6
f 43/2/6 52/2/6 56/2/6
f 53/2/6 54/2/6 57/2/6
f 56/3/6 53/3/6 57/3/6
f 54/2/6 55/2/6 57/2/6
f 56/2/6 57/2/6 58/2/6
f 57/2/6 55/2/6 58/2/6
f 58/2/6 55/2/6 59/2/6
f 59/2/6 55/2/6 60/2/6
f 60/2/6 55/2/6 61/2/6
f 43/2/6 56/2/6 62/2/6
f 37/2/6 43/2/6 62/2/6
f 56/2/6 58/2/6 62/2/6
f 62/2/6 58/2/6 63/2/6
f 60/1/6 61/1/6 64/1/6
f 59/2/6 60/2/6 64/2/6
f 61/2/6 55/2/6 65/2/6
f 64/1/6 61/1/6 65/1/6
f 63/2/6 58/2/6 66/2/6
f 58/1/6 59/1/6 66/1/6
f 59/2/6 64/2/6 67/2/6
f 66/1/6 59/1/6 67/1/6
f 64/2/6 65/2/6 67/2/6
f 62/1/6 63/1/6 68/1/6
f 37/2/6 62/2/6 68/2/6
f 63/2/6 66/2/6 69/2/6
f 68/1/6 63/1/6 69/1/6
f 66/2/6 67/2/6 69/2/6
f 68/3/6 69/3/6 70/3/6
f 69/2/6 67/2/6 71/2/6
f 70/3/6 69/3/6 71/3/6
f 71/2/6 67/2/6 72/2/6
f 37/2/6 68/2/6 73/2/6
f 68/3/6 70/3/6 73/3/6
f 71/4/6 72/4/6 74/4/6
f 73/3/6 70/3/6 74/3/6
f 70/4/6 71/4/6 74/4/6
f 73/2/6 74/2/6 75/2/6
f 74/4/6 72/4/6 75/4/6
f 72/2/6 67/2/6 76/2/6
f 75/4/6 72/4/6 76/4/6
f 75/2/6 76/2/6 77/2/6
f 76/2/6 67/2/6 77/2/6
f 67/2/6 65/2/6 78/2/6
f 77/2/6 67/2/6 78/2/6
f 65/2/6 55/2/6 79/2/6
f 78/2/6 65/2/6 79/2/6
f 55/2/6 40/2/6 80/2/6
f 79/2/6 55/2/6 80/2/6
f 78/2/6 79/2/6 81/2/6
f 81/2/6 79/2/6 82/2/6
f 77/1/6 78/1/6 83/1/6
f 75/2/6 77/2/6 83/2/6
f 78/2/6 81/2/6 84/2/6
f 83/1/6 78/1/6 84/1/6
f 81/3/6 82/3/6 85/3/6
f 84/2/6 81/2/6 85/2/6
f 82/2/6 79/2/6 86/2/6
f 85/3/6 82/3/6 86/3/6
f 79/1/6 80/1/6 87/1/6
f 86/2/6 79/2/6 87/2/6
f 87/1/6 80/1/6 88/1/6
f 73/2/6 75/2/6 89/2/6
f 84/2/6 85/2/6 89/2/6
f 87/2/6 88/2/6 89/2/6
f 86/2/6 87/2/6 89/2/6
f 75/2/6 83/2/6 89/2/6
f 85/2/6 86/2/6 89/2/6
f 37/2/6 73/2/6 89/2/6
f 83/2/6 84/2/6 89/2/6
f 89/2/6 88/2/6 90/2/6
f 90/2/6 88/2/6 91/2/6
f 91/2/6 88/2/6 92/2/6
f 37/2/6 89/2/6 93/2/6
f 89/1/6 90/1/6 93/1/6
f 90/2/6 91/2/6 94/2/6
f 93/1/6 90/1/6 94/1/6
f 94/2/6 91/2/6 95/2/6
f 95/2/6 91/2/6 96/2/6
f 91/4/6 92/4/6 97/4/6
f 96/2/6 91/2/6 97/2/6
f 92/2/6 88/2/6 98/2/6
f 97/4/6 92/4/6 98/4/6
f 95/1/6 96/1/6 99/1/6
f 93/2/6 94/2/6 99/2/6
f 94/2/6 95/2/6 99/2/6
f 96/2/6 97/2/6 100/2/6
f 99/1/6 96/1/6 100/1/6
f 97/2/6 98/2/6 100/2/6
f 93/2/6 99/2/6 101/2/6
f 37/2/6 93/2/6 101/2/6
f 99/2/6 100/2/6 101/2/6
f 100/2/6 98/2/6 102/2/6
f 101/2/6 100/2/6 102/2/6
f 98/2/6 88/2/6 102/2/6
