# MagicaVoxel @ Ephtracy

# group
o 

# material
mtllib chair_3.mtl
usemtl palette

# normals
vn -1 0 0
vn 1 0 0
vn 0 0 1
vn 0 0 -1
vn 0 -1 0
vn 0 1 0

# texcoords
vt 0.501953 0.5
vt 0.505859 0.5
vt 0.513672 0.5

# verts
v -0.35 -0.3 0.35
v -0.35 -0.3 -0.25
v -0.35 -0.3 -0.35
v -0.35 -0.2 0.35
v -0.35 -0.2 0.25
v -0.35 -0.2 -0.25
v -0.35 -0.1 0.05
v -0.35 -0.1 -0.25
v -0.35 0 0.25
v -0.35 0 0.05
v -0.35 0 -0.05
v -0.35 0 -0.35
v -0.35 0.1 0.25
v -0.35 0.1 -0.05
v -0.35 0.6 0.35
v -0.35 0.6 0.25
v -0.25 -0.8 0.25
v -0.25 -0.8 0.15
v -0.25 -0.8 -0.15
v -0.25 -0.8 -0.25
v -0.25 -0.3 0.25
v -0.25 -0.3 0.15
v -0.25 -0.3 -0.15
v -0.25 -0.3 -0.25
v -0.25 0.6 0.35
v -0.25 0.6 0.25
v -0.25 0.7 0.35
v -0.25 0.7 0.25
v -0.15 -0.2 0.35
v -0.15 -0.2 0.25
v -0.15 0.5 0.35
v -0.15 0.5 0.25
v -0.15 0.7 0.35
v -0.15 0.7 0.25
v -0.15 0.8 0.35
v -0.15 0.8 0.25
v 0.05 -0.2 0.35
v 0.05 -0.2 0.25
v 0.05 0.7 0.35
v 0.05 0.7 0.25
v 0.15 -0.8 0.25
v 0.15 -0.8 0.15
v 0.15 -0.8 -0.15
v 0.15 -0.8 -0.25
v 0.15 -0.3 0.25
v 0.15 -0.3 0.15
v 0.15 -0.3 -0.15
v 0.15 -0.3 -0.25
v 0.25 -0.2 0.35
v 0.25 -0.2 0.25
v 0.25 -0.2 -0.25
v 0.25 -0.2 -0.35
v 0.25 -0.1 0.05
v 0.25 -0.1 -0.25
v 0.25 0 0.25
v 0.25 0 0.05
v 0.25 0 -0.05
v 0.25 0 -0.35
v 0.25 0.1 0.25
v 0.25 0.1 -0.05
v 0.25 0.5 0.35
v 0.25 0.5 0.25
v -0.25 -0.2 0.35
v -0.25 -0.2 0.25
v -0.25 -0.2 -0.25
v -0.25 -0.2 -0.35
v -0.25 -0.1 0.05
v -0.25 -0.1 -0.25
v -0.25 0 0.25
v -0.25 0 0.05
v -0.25 0 -0.05
v -0.25 0 -0.35
v -0.25 0.1 0.25
v -0.25 0.1 -0.05
v -0.25 0.5 0.35
v -0.25 0.5 0.25
v -0.15 -0.8 0.25
v -0.15 -0.8 0.15
v -0.15 -0.8 -0.15
v -0.15 -0.8 -0.25
v -0.15 -0.3 0.25
v -0.15 -0.3 0.15
v -0.15 -0.3 -0.15
v -0.15 -0.3 -0.25
v -0.05 -0.2 0.35
v -0.05 -0.2 0.25
v -0.05 0.7 0.35
v -0.05 0.7 0.25
v 0.15 -0.2 0.35
v 0.15 -0.2 0.25
v 0.15 0.5 0.35
v 0.15 0.5 0.25
v 0.15 0.7 0.35
v 0.15 0.7 0.25
v 0.15 0.8 0.35
v 0.15 0.8 0.25
v 0.25 -0.8 0.25
v 0.25 -0.8 0.15
v 0.25 -0.8 -0.15
v 0.25 -0.8 -0.25
v 0.25 -0.3 0.25
v 0.25 -0.3 0.15
v 0.25 -0.3 -0.15
v 0.25 -0.3 -0.25
v 0.25 0.6 0.35
v 0.25 0.6 0.25
v 0.25 0.7 0.35
v 0.25 0.7 0.25
v 0.35 -0.3 0.35
v 0.35 -0.3 -0.35
v 0.35 -0.2 0.35
v 0.35 -0.2 0.25
v 0.35 -0.2 -0.25
v 0.35 -0.2 -0.35
v 0.35 -0.1 0.05
v 0.35 -0.1 -0.25
v 0.35 0 0.25
v 0.35 0 0.05
v 0.35 0 -0.05
v 0.35 0 -0.35
v 0.35 0.1 0.25
v 0.35 0.1 -0.05
v 0.35 0.6 0.35
v 0.35 0.6 0.25
v -0.35 -0.3 0.35
v -0.35 -0.2 0.35
v -0.35 0.6 0.35
v -0.25 -0.3 0.35
v -0.25 -0.2 0.35
v -0.25 0.5 0.35
v -0.25 0.6 0.35
v -0.25 0.7 0.35
v -0.15 -0.3 0.35
v -0.15 -0.2 0.35
v -0.15 0.5 0.35
v -0.15 0.7 0.35
v -0.15 0.8 0.35
v -0.05 -0.3 0.35
v -0.05 -0.2 0.35
v -0.05 0.7 0.35
v 0.05 -0.3 0.35
v 0.05 -0.2 0.35
v 0.05 0.7 0.35
v 0.15 -0.3 0.35
v 0.15 -0.2 0.35
v 0.15 0.5 0.35
v 0.15 0.7 0.35
v 0.15 0.8 0.35
v 0.25 -0.3 0.35
v 0.25 -0.2 0.35
v 0.25 0.5 0.35
v 0.25 0.6 0.35
v 0.25 0.7 0.35
v 0.35 -0.3 0.35
v 0.35 -0.2 0.35
v 0.35 0.6 0.35
v -0.25 -0.8 0.25
v -0.25 -0.3 0.25
v -0.15 -0.8 0.25
v -0.15 -0.3 0.25
v 0.15 -0.8 0.25
v 0.15 -0.3 0.25
v 0.25 -0.8 0.25
v 0.25 -0.3 0.25
v -0.35 -0.1 0.05
v -0.35 0 0.05
v -0.25 -0.1 0.05
v -0.25 0 0.05
v 0.25 -0.1 0.05
v 0.25 0 0.05
v 0.35 -0.1 0.05
v 0.35 0 0.05
v -0.25 -0.8 -0.15
v -0.25 -0.3 -0.15
v -0.15 -0.8 -0.15
v -0.15 -0.3 -0.15
v 0.15 -0.8 -0.15
v 0.15 -0.3 -0.15
v 0.25 -0.8 -0.15
v 0.25 -0.3 -0.15
v -0.35 -0.2 -0.25
v -0.35 -0.1 -0.25
v -0.25 -0.2 -0.25
v -0.25 -0.1 -0.25
v 0.25 -0.2 -0.25
v 0.25 -0.1 -0.25
v 0.35 -0.2 -0.25
v 0.35 -0.1 -0.25
v -0.35 -0.2 0.25
v -0.35 0 0.25
v -0.35 0.1 0.25
v -0.35 0.6 0.25
v -0.25 -0.2 0.25
v -0.25 0 0.25
v -0.25 0.1 0.25
v -0.25 0.5 0.25
v -0.25 0.6 0.25
v -0.25 0.7 0.25
v -0.15 -0.2 0.25
v -0.15 0.5 0.25
v -0.15 0.7 0.25
v -0.15 0.8 0.25
v -0.05 -0.2 0.25
v -0.05 0.7 0.25
v 0.05 -0.2 0.25
v 0.05 0.7 0.25
v 0.15 -0.2 0.25
v 0.15 0.5 0.25
v 0.15 0.7 0.25
v 0.15 0.8 0.25
v 0.25 -0.2 0.25
v 0.25 0 0.25
v 0.25 0.1 0.25
v 0.25 0.5 0.25
v 0.25 0.6 0.25
v 0.25 0.7 0.25
v 0.35 -0.2 0.25
v 0.35 0 0.25
v 0.35 0.1 0.25
v 0.35 0.6 0.25
v -0.25 -0.8 0.15
v -0.25 -0.3 0.15
v -0.15 -0.8 0.15
v -0.15 -0.3 0.15
v 0.15 -0.8 0.15
v 0.15 -0.3 0.15
v 0.25 -0.8 0.15
v 0.25 -0.3 0.15
v -0.35 0 -0.05
v -0.35 0.1 -0.05
v -0.25 0 -0.05
v -0.25 0.1 -0.05
v 0.25 0 -0.05
v 0.25 0.1 -0.05
v 0.35 0 -0.05
v 0.35 0.1 -0.05
v -0.25 -0.8 -0.25
v -0.25 -0.3 -0.25
v -0.15 -0.8 -0.25
v -0.15 -0.3 -0.25
v 0.15 -0.8 -0.25
v 0.15 -0.3 -0.25
v 0.25 -0.8 -0.25
v 0.25 -0.3 -0.25
v -0.35 -0.3 -0.35
v -0.35 0 -0.35
v -0.25 -0.2 -0.35
v -0.25 0 -0.35
v -0.15 -0.3 -0.35
v -0.15 -0.2 -0.35
v -0.05 -0.3 -0.35
v -0.05 -0.2 -0.35
v 0.25 -0.3 -0.35
v 0.25 -0.2 -0.35
v 0.25 0 -0.35
v 0.35 -0.3 -0.35
v 0.35 -0.2 -0.35
v 0.35 0 -0.35
v -0.25 -0.8 0.25
v -0.15 -0.8 0.25
v 0.15 -0.8 0.25
v 0.25 -0.8 0.25
v -0.25 -0.8 0.15
v -0.15 -0.8 0.15
v 0.15 -0.8 0.15
v 0.25 -0.8 0.15
v -0.25 -0.8 -0.15
v -0.15 -0.8 -0.15
v 0.15 -0.8 -0.15
v 0.25 -0.8 -0.15
v -0.25 -0.8 -0.25
v -0.15 -0.8 -0.25
v 0.15 -0.8 -0.25
v 0.25 -0.8 -0.25
v -0.35 -0.3 0.35
v -0.25 -0.3 0.35
v -0.15 -0.3 0.35
v -0.05 -0.3 0.35
v 0.05 -0.3 0.35
v 0.15 -0.3 0.35
v 0.25 -0.3 0.35
v 0.35 -0.3 0.35
v -0.25 -0.3 0.25
v -0.15 -0.3 0.25
v -0.05 -0.3 0.25
v 0.05 -0.3 0.25
v 0.15 -0.3 0.25
v 0.25 -0.3 0.25
v -0.25 -0.3 0.15
v -0.15 -0.3 0.15
v -0.05 -0.3 0.15
v 0.05 -0.3 0.15
v 0.15 -0.3 0.15
v 0.25 -0.3 0.15
v -0.25 -0.3 0.05
v -0.15 -0.3 0.05
v -0.05 -0.3 0.05
v 0.05 -0.3 0.05
v 0.15 -0.3 0.05
v -0.15 -0.3 -0.05
v -0.05 -0.3 -0.05
v 0.15 -0.3 -0.05
v 0.25 -0.3 -0.05
v -0.25 -0.3 -0.15
v -0.15 -0.3 -0.15
v -0.05 -0.3 -0.15
v 0.05 -0.3 -0.15
v 0.15 -0.3 -0.15
v 0.25 -0.3 -0.15
v -0.35 -0.3 -0.25
v -0.25 -0.3 -0.25
v -0.15 -0.3 -0.25
v -0.05 -0.3 -0.25
v 0.05 -0.3 -0.25
v 0.15 -0.3 -0.25
v 0.25 -0.3 -0.25
v -0.35 -0.3 -0.35
v -0.15 -0.3 -0.35
v -0.05 -0.3 -0.35
v 0.25 -0.3 -0.35
v 0.35 -0.3 -0.35
v -0.35 -0.1 0.05
v -0.25 -0.1 0.05
v 0.25 -0.1 0.05
v 0.35 -0.1 0.05
v -0.35 -0.1 -0.25
v -0.25 -0.1 -0.25
v 0.25 -0.1 -0.25
v 0.35 -0.1 -0.25
v -0.35 0 0.25
v -0.25 0 0.25
v 0.25 0 0.25
v 0.35 0 0.25
v -0.35 0 0.05
v -0.25 0 0.05
v 0.25 0 0.05
v 0.35 0 0.05
v -0.25 0.5 0.35
v -0.15 0.5 0.35
v 0.15 0.5 0.35
v 0.25 0.5 0.35
v -0.25 0.5 0.25
v -0.15 0.5 0.25
v 0.15 0.5 0.25
v 0.25 0.5 0.25
v -0.05 0.7 0.35
v 0.05 0.7 0.35
v -0.05 0.7 0.25
v 0.05 0.7 0.25
v -0.25 -0.2 0.35
v -0.15 -0.2 0.35
v -0.05 -0.2 0.35
v 0.05 -0.2 0.35
v 0.15 -0.2 0.35
v 0.25 -0.2 0.35
v -0.35 -0.2 0.25
v -0.25 -0.2 0.25
v -0.15 -0.2 0.25
v -0.05 -0.2 0.25
v 0.05 -0.2 0.25
v 0.15 -0.2 0.25
v 0.25 -0.2 0.25
v 0.35 -0.2 0.25
v -0.15 -0.2 0.15
v -0.05 -0.2 0.15
v 0.05 -0.2 0.15
v 0.15 -0.2 0.15
v 0.25 -0.2 0.15
v -0.25 -0.2 0.05
v -0.15 -0.2 0.05
v -0.05 -0.2 0.05
v 0.05 -0.2 0.05
v 0.15 -0.2 0.05
v -0.15 -0.2 -0.05
v -0.05 -0.2 -0.05
v 0.15 -0.2 -0.05
v 0.25 -0.2 -0.05
v -0.25 -0.2 -0.15
v -0.05 -0.2 -0.15
v 0.05 -0.2 -0.15
v 0.15 -0.2 -0.15
v 0.25 -0.2 -0.15
v -0.35 -0.2 -0.25
v -0.25 -0.2 -0.25
v -0.15 -0.2 -0.25
v -0.05 -0.2 -0.25
v 0.05 -0.2 -0.25
v 0.15 -0.2 -0.25
v 0.25 -0.2 -0.25
v 0.35 -0.2 -0.25
v -0.25 -0.2 -0.35
v -0.15 -0.2 -0.35
v -0.05 -0.2 -0.35
v 0.25 -0.2 -0.35
v -0.35 0 -0.05
v -0.25 0 -0.05
v 0.25 0 -0.05
v 0.35 0 -0.05
v -0.35 0 -0.35
v -0.25 0 -0.35
v 0.25 0 -0.35
v 0.35 0 -0.35
v -0.35 0.1 0.25
v -0.25 0.1 0.25
v 0.25 0.1 0.25
v 0.35 0.1 0.25
v -0.35 0.1 -0.05
v -0.25 0.1 -0.05
v 0.25 0.1 -0.05
v 0.35 0.1 -0.05
v -0.35 0.6 0.35
v -0.25 0.6 0.35
v 0.25 0.6 0.35
v 0.35 0.6 0.35
v -0.35 0.6 0.25
v -0.25 0.6 0.25
v 0.25 0.6 0.25
v 0.35 0.6 0.25
v -0.25 0.7 0.35
v -0.15 0.7 0.35
v 0.15 0.7 0.35
v 0.25 0.7 0.35
v -0.25 0.7 0.25
v -0.15 0.7 0.25
v 0.15 0.7 0.25
v 0.25 0.7 0.25
v -0.15 0.8 0.35
v 0.15 0.8 0.35
v -0.15 0.8 0.25
v 0.15 0.8 0.25

# faces
f 4/2/1 2/2/1 1/2/1
f 5/2/1 2/2/1 4/2/1
f 6/1/1 3/1/1 2/1/1
f 6/2/1 2/2/1 5/2/1
f 8/1/1 3/1/1 6/1/1
f 9/1/1 5/1/1 4/1/1
f 10/1/1 8/1/1 7/1/1
f 11/1/1 8/1/1 10/1/1
f 12/1/1 3/1/1 8/1/1
f 12/1/1 8/1/1 11/1/1
f 13/1/1 9/1/1 4/1/1
f 13/1/1 11/1/1 10/1/1
f 13/1/1 10/1/1 9/1/1
f 14/1/1 11/1/1 13/1/1
f 15/1/1 13/1/1 4/1/1
f 16/1/1 13/1/1 15/1/1
f 21/1/1 18/1/1 17/1/1
f 22/1/1 18/1/1 21/1/1
f 23/1/1 20/1/1 19/1/1
f 24/1/1 20/1/1 23/1/1
f 27/1/1 26/1/1 25/1/1
f 28/1/1 26/1/1 27/1/1
f 31/1/1 30/1/1 29/1/1
f 32/1/1 30/1/1 31/1/1
f 35/1/1 34/1/1 33/1/1
f 36/1/1 34/1/1 35/1/1
f 39/1/1 38/1/1 37/1/1
f 40/1/1 38/1/1 39/1/1
f 45/1/1 42/1/1 41/1/1
f 46/1/1 42/1/1 45/1/1
f 47/1/1 44/1/1 43/1/1
f 48/1/1 44/1/1 47/1/1
f 54/1/1 52/1/1 51/1/1
f 55/1/1 50/1/1 49/1/1
f 56/1/1 54/1/1 53/1/1
f 57/1/1 54/1/1 56/1/1
f 58/1/1 52/1/1 54/1/1
f 58/1/1 54/1/1 57/1/1
f 59/1/1 55/1/1 49/1/1
f 59/1/1 57/1/1 56/1/1
f 59/1/1 56/1/1 55/1/1
f 60/1/1 57/1/1 59/1/1
f 61/1/1 59/1/1 49/1/1
f 62/1/1 59/1/1 61/1/1
f 65/1/2 66/1/2 68/1/2
f 63/1/2 64/1/2 69/1/2
f 67/1/2 68/1/2 70/1/2
f 70/1/2 68/1/2 71/1/2
f 68/1/2 66/1/2 72/1/2
f 71/1/2 68/1/2 72/1/2
f 63/1/2 69/1/2 73/1/2
f 70/1/2 71/1/2 73/1/2
f 69/1/2 70/1/2 73/1/2
f 73/1/2 71/1/2 74/1/2
f 63/1/2 73/1/2 75/1/2
f 75/1/2 73/1/2 76/1/2
f 77/1/2 78/1/2 81/1/2
f 81/1/2 78/1/2 82/1/2
f 79/1/2 80/1/2 83/1/2
f 83/1/2 80/1/2 84/1/2
f 85/1/2 86/1/2 87/1/2
f 87/1/2 86/1/2 88/1/2
f 89/1/2 90/1/2 91/1/2
f 91/1/2 90/1/2 92/1/2
f 93/1/2 94/1/2 95/1/2
f 95/1/2 94/1/2 96/1/2
f 97/1/2 98/1/2 101/1/2
f 101/1/2 98/1/2 102/1/2
f 99/1/2 100/1/2 103/1/2
f 103/1/2 100/1/2 104/1/2
f 105/1/2 106/1/2 107/1/2
f 107/1/2 106/1/2 108/1/2
f 109/2/2 110/2/2 111/2/2
f 111/2/2 110/2/2 112/2/2
f 112/2/2 110/2/2 113/2/2
f 113/2/2 110/2/2 114/2/2
f 113/1/2 114/1/2 116/1/2
f 111/1/2 112/1/2 117/1/2
f 115/1/2 116/1/2 118/1/2
f 118/1/2 116/1/2 119/1/2
f 116/1/2 114/1/2 120/1/2
f 119/1/2 116/1/2 120/1/2
f 111/1/2 117/1/2 121/1/2
f 118/1/2 119/1/2 121/1/2
f 117/1/2 118/1/2 121/1/2
f 121/1/2 119/1/2 122/1/2
f 111/1/2 121/1/2 123/1/2
f 123/1/2 121/1/2 124/1/2
f 128/2/3 126/2/3 125/2/3
f 129/1/3 127/1/3 126/1/3
f 129/2/3 126/2/3 128/2/3
f 130/1/3 127/1/3 129/1/3
f 131/1/3 127/1/3 130/1/3
f 133/1/3 129/1/3 128/1/3
f 134/1/3 129/1/3 133/1/3
f 135/1/3 132/1/3 131/1/3
f 135/1/3 131/1/3 130/1/3
f 136/1/3 132/1/3 135/1/3
f 138/2/3 134/2/3 133/2/3
f 139/1/3 137/1/3 136/1/3
f 139/2/3 134/2/3 138/2/3
f 139/1/3 135/1/3 134/1/3
f 139/1/3 136/1/3 135/1/3
f 140/1/3 137/1/3 139/1/3
f 141/1/3 139/1/3 138/1/3
f 142/1/3 139/1/3 141/1/3
f 143/1/3 137/1/3 140/1/3
f 144/2/3 142/2/3 141/2/3
f 145/1/3 143/1/3 142/1/3
f 145/2/3 142/2/3 144/2/3
f 146/1/3 143/1/3 145/1/3
f 147/1/3 137/1/3 143/1/3
f 147/1/3 143/1/3 146/1/3
f 148/1/3 137/1/3 147/1/3
f 149/1/3 145/1/3 144/1/3
f 150/1/3 145/1/3 149/1/3
f 151/1/3 147/1/3 146/1/3
f 152/1/3 147/1/3 151/1/3
f 153/1/3 147/1/3 152/1/3
f 154/2/3 150/2/3 149/2/3
f 155/1/3 151/1/3 150/1/3
f 155/2/3 150/2/3 154/2/3
f 155/1/3 152/1/3 151/1/3
f 156/1/3 152/1/3 155/1/3
f 159/1/3 158/1/3 157/1/3
f 160/1/3 158/1/3 159/1/3
f 163/1/3 162/1/3 161/1/3
f 164/1/3 162/1/3 163/1/3
f 167/1/3 166/1/3 165/1/3
f 168/1/3 166/1/3 167/1/3
f 171/1/3 170/1/3 169/1/3
f 172/1/3 170/1/3 171/1/3
f 175/1/3 174/1/3 173/1/3
f 176/1/3 174/1/3 175/1/3
f 179/1/3 178/1/3 177/1/3
f 180/1/3 178/1/3 179/1/3
f 183/1/3 182/1/3 181/1/3
f 184/1/3 182/1/3 183/1/3
f 187/1/3 186/1/3 185/1/3
f 188/1/3 186/1/3 187/1/3
f 189/1/4 190/1/4 193/1/4
f 193/1/4 190/1/4 194/1/4
f 191/1/4 192/1/4 195/1/4
f 195/1/4 192/1/4 196/1/4
f 196/1/4 192/1/4 197/1/4
f 197/1/4 198/1/4 200/1/4
f 196/1/4 197/1/4 200/1/4
f 200/1/4 198/1/4 201/1/4
f 199/1/4 200/1/4 203/1/4
f 201/1/4 202/1/4 203/1/4
f 200/1/4 201/1/4 203/1/4
f 203/1/4 202/1/4 204/1/4
f 204/1/4 202/1/4 206/1/4
f 205/1/4 206/1/4 207/1/4
f 207/1/4 206/1/4 208/1/4
f 206/1/4 202/1/4 209/1/4
f 208/1/4 206/1/4 209/1/4
f 209/1/4 202/1/4 210/1/4
f 208/1/4 209/1/4 214/1/4
f 214/1/4 209/1/4 215/1/4
f 215/1/4 209/1/4 216/1/4
f 211/1/4 212/1/4 217/1/4
f 217/1/4 212/1/4 218/1/4
f 213/1/4 214/1/4 219/1/4
f 214/1/4 215/1/4 219/1/4
f 219/1/4 215/1/4 220/1/4
f 221/1/4 222/1/4 223/1/4
f 223/1/4 222/1/4 224/1/4
f 225/1/4 226/1/4 227/1/4
f 227/1/4 226/1/4 228/1/4
f 229/1/4 230/1/4 231/1/4
f 231/1/4 230/1/4 232/1/4
f 233/1/4 234/1/4 235/1/4
f 235/1/4 234/1/4 236/1/4
f 237/1/4 238/1/4 239/1/4
f 239/1/4 238/1/4 240/1/4
f 241/1/4 242/1/4 243/1/4
f 243/1/4 242/1/4 244/1/4
f 245/1/4 246/1/4 247/1/4
f 247/1/4 246/1/4 248/1/4
f 245/1/4 247/1/4 249/1/4
f 249/1/4 247/1/4 250/1/4
f 249/3/4 250/3/4 251/3/4
f 251/3/4 250/3/4 252/3/4
f 251/1/4 252/1/4 253/1/4
f 253/1/4 252/1/4 254/1/4
f 253/2/4 254/2/4 256/2/4
f 254/1/4 255/1/4 257/1/4
f 256/2/4 254/2/4 257/2/4
f 257/1/4 255/1/4 258/1/4
f 263/1/5 260/1/5 259/1/5
f 264/1/5 260/1/5 263/1/5
f 265/1/5 262/1/5 261/1/5
f 266/1/5 262/1/5 265/1/5
f 271/1/5 268/1/5 267/1/5
f 272/1/5 268/1/5 271/1/5
f 273/1/5 270/1/5 269/1/5
f 274/1/5 270/1/5 273/1/5
f 283/2/5 276/2/5 275/2/5
f 283/1/5 277/1/5 276/1/5
f 284/2/5 278/2/5 277/2/5
f 284/1/5 277/1/5 283/1/5
f 285/1/5 279/1/5 278/1/5
f 285/2/5 278/2/5 284/2/5
f 286/2/5 280/2/5 279/2/5
f 286/1/5 279/1/5 285/1/5
f 287/1/5 281/1/5 280/1/5
f 287/2/5 280/2/5 286/2/5
f 288/2/5 282/2/5 281/2/5
f 288/1/5 281/1/5 287/1/5
f 289/2/5 283/2/5 275/2/5
f 290/2/5 286/2/5 285/2/5
f 290/2/5 285/2/5 284/2/5
f 291/2/5 286/2/5 290/2/5
f 292/3/5 287/3/5 286/3/5
f 292/2/5 286/2/5 291/2/5
f 293/3/5 287/3/5 292/3/5
f 294/2/5 282/2/5 288/2/5
f 295/2/5 289/2/5 275/2/5
f 295/1/5 290/1/5 289/1/5
f 296/3/5 291/3/5 290/3/5
f 296/1/5 290/1/5 295/1/5
f 297/1/5 292/1/5 291/1/5
f 297/3/5 291/3/5 296/3/5
f 298/3/5 293/3/5 292/3/5
f 298/1/5 292/1/5 297/1/5
f 299/1/5 294/1/5 293/1/5
f 299/3/5 293/3/5 298/3/5
f 300/3/5 297/3/5 296/3/5
f 300/2/5 296/2/5 295/2/5
f 301/2/5 298/2/5 297/2/5
f 301/3/5 297/3/5 300/3/5
f 301/2/5 299/2/5 298/2/5
f 302/1/5 294/1/5 299/1/5
f 302/2/5 299/2/5 301/2/5
f 303/2/5 282/2/5 294/2/5
f 303/1/5 294/1/5 302/1/5
f 304/2/5 295/2/5 275/2/5
f 304/2/5 300/2/5 295/2/5
f 304/2/5 301/2/5 300/2/5
f 304/2/5 302/2/5 301/2/5
f 305/2/5 302/2/5 304/2/5
f 306/2/5 302/2/5 305/2/5
f 307/2/5 302/2/5 306/2/5
f 308/3/5 303/3/5 302/3/5
f 308/2/5 302/2/5 307/2/5
f 309/2/5 282/2/5 303/2/5
f 309/3/5 303/3/5 308/3/5
f 310/2/5 304/2/5 275/2/5
f 311/2/5 304/2/5 310/2/5
f 312/1/5 306/1/5 305/1/5
f 313/2/5 307/2/5 306/2/5
f 313/1/5 306/1/5 312/1/5
f 314/1/5 308/1/5 307/1/5
f 314/2/5 307/2/5 313/2/5
f 315/1/5 308/1/5 314/1/5
f 316/2/5 282/2/5 309/2/5
f 317/1/5 312/1/5 311/1/5
f 317/1/5 311/1/5 310/1/5
f 318/3/5 313/3/5 312/3/5
f 318/1/5 312/1/5 317/1/5
f 319/1/5 316/1/5 315/1/5
f 319/3/5 313/3/5 318/3/5
f 319/1/5 315/1/5 314/1/5
f 319/1/5 314/1/5 313/1/5
f 320/2/5 282/2/5 316/2/5
f 320/1/5 316/1/5 319/1/5
f 321/2/5 282/2/5 320/2/5
f 326/1/5 323/1/5 322/1/5
f 327/1/5 323/1/5 326/1/5
f 328/1/5 325/1/5 324/1/5
f 329/1/5 325/1/5 328/1/5
f 334/1/5 331/1/5 330/1/5
f 335/1/5 331/1/5 334/1/5
f 336/1/5 333/1/5 332/1/5
f 337/1/5 333/1/5 336/1/5
f 342/1/5 339/1/5 338/1/5
f 343/1/5 339/1/5 342/1/5
f 344/1/5 341/1/5 340/1/5
f 345/1/5 341/1/5 344/1/5
f 348/1/5 347/1/5 346/1/5
f 349/1/5 347/1/5 348/1/5
f 350/1/6 351/1/6 357/1/6
f 357/1/6 351/1/6 358/1/6
f 352/1/6 353/1/6 359/1/6
f 359/1/6 353/1/6 360/1/6
f 354/1/6 355/1/6 361/1/6
f 361/1/6 355/1/6 362/1/6
f 359/2/6 360/2/6 364/2/6
f 357/1/6 358/1/6 364/1/6
f 358/2/6 359/2/6 364/2/6
f 364/2/6 360/2/6 365/2/6
f 360/3/6 361/3/6 366/3/6
f 365/2/6 360/2/6 366/2/6
f 362/2/6 363/2/6 367/2/6
f 366/3/6 361/3/6 367/3/6
f 361/2/6 362/2/6 367/2/6
f 367/2/6 363/2/6 368/2/6
f 357/1/6 364/1/6 369/1/6
f 356/2/6 357/2/6 369/2/6
f 364/3/6 365/3/6 370/3/6
f 369/1/6 364/1/6 370/1/6
f 365/1/6 366/1/6 371/1/6
f 370/3/6 365/3/6 371/3/6
f 366/3/6 367/3/6 372/3/6
f 371/1/6 366/1/6 372/1/6
f 367/1/6 368/1/6 373/1/6
f 372/3/6 367/3/6 373/3/6
f 369/2/6 370/2/6 374/2/6
f 370/3/6 371/3/6 374/3/6
f 371/2/6 372/2/6 375/2/6
f 374/3/6 371/3/6 375/3/6
f 372/2/6 373/2/6 375/2/6
f 373/1/6 368/1/6 376/1/6
f 375/2/6 373/2/6 376/2/6
f 368/2/6 363/2/6 377/2/6
f 376/1/6 368/1/6 377/1/6
f 374/2/6 375/2/6 378/2/6
f 375/2/6 376/2/6 378/2/6
f 369/2/6 374/2/6 378/2/6
f 356/2/6 369/2/6 378/2/6
f 378/2/6 376/2/6 379/2/6
f 379/2/6 376/2/6 380/2/6
f 376/3/6 377/3/6 381/3/6
f 380/2/6 376/2/6 381/2/6
f 377/2/6 363/2/6 382/2/6
f 381/3/6 377/3/6 382/3/6
f 356/2/6 378/2/6 383/2/6
f 378/1/6 379/1/6 384/1/6
f 383/2/6 378/2/6 384/2/6
f 384/1/6 379/1/6 385/1/6
f 379/2/6 380/2/6 386/2/6
f 385/1/6 379/1/6 386/1/6
f 380/1/6 381/1/6 387/1/6
f 386/2/6 380/2/6 387/2/6
f 381/2/6 382/2/6 388/2/6
f 387/1/6 381/1/6 388/1/6
f 382/2/6 363/2/6 389/2/6
f 388/2/6 382/2/6 389/2/6
f 389/2/6 363/2/6 390/2/6
f 384/1/6 385/1/6 391/1/6
f 385/3/6 386/3/6 392/3/6
f 391/1/6 385/1/6 392/1/6
f 387/1/6 388/1/6 393/1/6
f 392/3/6 386/3/6 393/3/6
f 386/1/6 387/1/6 393/1/6
f 388/1/6 389/1/6 393/1/6
f 393/1/6 389/1/6 394/1/6
f 395/1/6 396/1/6 399/1/6
f 399/1/6 396/1/6 400/1/6
f 397/1/6 398/1/6 401/1/6
f 401/1/6 398/1/6 402/1/6
f 403/1/6 404/1/6 407/1/6
f 407/1/6 404/1/6 408/1/6
f 405/1/6 406/1/6 409/1/6
f 409/1/6 406/1/6 410/1/6
f 411/1/6 412/1/6 415/1/6
f 415/1/6 412/1/6 416/1/6
f 413/1/6 414/1/6 417/1/6
f 417/1/6 414/1/6 418/1/6
f 419/1/6 420/1/6 423/1/6
f 423/1/6 420/1/6 424/1/6
f 421/1/6 422/1/6 425/1/6
f 425/1/6 422/1/6 426/1/6
f 427/1/6 428/1/6 429/1/6
f 429/1/6 428/1/6 430/1/6
