# MagicaVoxel @ Ephtracy

# group
o 

# material
mtllib sword_rack_empty.mtl
usemtl palette

# normals
vn -1 0 0
vn 1 0 0
vn 0 0 1
vn 0 0 -1
vn 0 -1 0
vn 0 1 0

# texcoords
vt 0.564453 0.5
vt 0.658203 0.5

# verts
v -0.95 -0.45 0.15
v -0.95 -0.45 -0.15
v -0.95 -0.35 0.15
v -0.95 -0.35 -0.05
v -0.95 0.25 -0.05
v -0.95 0.25 -0.15
v -0.85 0.25 -0.05
v -0.85 0.25 -0.15
v -0.85 0.35 -0.05
v -0.85 0.35 -0.15
v -0.75 -0.15 0.15
v -0.75 -0.15 -0.05
v -0.75 -0.05 0.15
v -0.75 -0.05 -0.05
v -0.75 0.35 -0.05
v -0.75 0.35 -0.15
v -0.75 0.45 -0.05
v -0.75 0.45 -0.15
v 0.65 -0.15 0.15
v 0.65 -0.15 -0.05
v 0.65 -0.05 0.15
v 0.65 -0.05 -0.05
v -0.65 -0.15 0.15
v -0.65 -0.15 -0.05
v -0.65 -0.05 0.15
v -0.65 -0.05 -0.05
v 0.75 -0.15 0.15
v 0.75 -0.15 -0.05
v 0.75 -0.05 0.15
v 0.75 -0.05 -0.05
v 0.75 0.35 -0.05
v 0.75 0.35 -0.15
v 0.75 0.45 -0.05
v 0.75 0.45 -0.15
v 0.85 0.25 -0.05
v 0.85 0.25 -0.15
v 0.85 0.35 -0.05
v 0.85 0.35 -0.15
v 0.95 -0.45 0.15
v 0.95 -0.45 -0.15
v 0.95 -0.35 0.15
v 0.95 -0.35 -0.05
v 0.95 0.25 -0.05
v 0.95 0.25 -0.15
v -0.95 -0.45 0.15
v -0.95 -0.35 0.15
v -0.75 -0.15 0.15
v -0.75 -0.05 0.15
v -0.65 -0.15 0.15
v -0.65 -0.05 0.15
v 0.65 -0.15 0.15
v 0.65 -0.05 0.15
v 0.75 -0.15 0.15
v 0.75 -0.05 0.15
v 0.95 -0.45 0.15
v 0.95 -0.35 0.15
v -0.95 -0.35 -0.05
v -0.95 0.25 -0.05
v -0.85 0.25 -0.05
v -0.85 0.35 -0.05
v -0.75 -0.15 -0.05
v -0.75 -0.05 -0.05
v -0.75 0.35 -0.05
v -0.75 0.45 -0.05
v -0.65 -0.15 -0.05
v -0.65 -0.05 -0.05
v 0.65 -0.15 -0.05
v 0.65 -0.05 -0.05
v 0.75 -0.15 -0.05
v 0.75 -0.05 -0.05
v 0.75 0.35 -0.05
v 0.75 0.45 -0.05
v 0.85 0.25 -0.05
v 0.85 0.35 -0.05
v 0.95 -0.35 -0.05
v 0.95 0.25 -0.05
v -0.95 -0.45 -0.15
v -0.95 0.25 -0.15
v -0.85 0.25 -0.15
v -0.85 0.35 -0.15
v -0.75 0.35 -0.15
v -0.75 0.45 -0.15
v 0.75 0.35 -0.15
v 0.75 0.45 -0.15
v 0.85 0.25 -0.15
v 0.85 0.35 -0.15
v 0.95 -0.45 -0.15
v 0.95 0.25 -0.15
v -0.95 -0.45 0.15
v 0.95 -0.45 0.15
v -0.95 -0.45 -0.15
v 0.95 -0.45 -0.15
v -0.75 -0.15 0.15
v -0.65 -0.15 0.15
v 0.65 -0.15 0.15
v 0.75 -0.15 0.15
v -0.75 -0.15 -0.05
v -0.65 -0.15 -0.05
v 0.65 -0.15 -0.05
v 0.75 -0.15 -0.05
v -0.95 -0.35 0.15
v 0.95 -0.35 0.15
v -0.95 -0.35 -0.05
v 0.95 -0.35 -0.05
v -0.75 -0.05 0.15
v -0.65 -0.05 0.15
v 0.65 -0.05 0.15
v 0.75 -0.05 0.15
v -0.75 -0.05 -0.05
v -0.65 -0.05 -0.05
v 0.65 -0.05 -0.05
v 0.75 -0.05 -0.05
v -0.95 0.25 -0.05
v -0.85 0.25 -0.05
v 0.85 0.25 -0.05
v 0.95 0.25 -0.05
v -0.95 0.25 -0.15
v -0.85 0.25 -0.15
v 0.85 0.25 -0.15
v 0.95 0.25 -0.15
v -0.85 0.35 -0.05
v -0.75 0.35 -0.05
v 0.75 0.35 -0.05
v 0.85 0.35 -0.05
v -0.85 0.35 -0.15
v -0.75 0.35 -0.15
v 0.75 0.35 -0.15
v 0.85 0.35 -0.15
v -0.75 0.45 -0.05
v 0.75 0.45 -0.05
v -0.75 0.45 -0.15
v 0.75 0.45 -0.15

# faces
f 3/2/1 2/2/1 1/2/1
f 4/2/1 2/2/1 3/2/1
f 5/2/1 2/2/1 4/2/1
f 6/2/1 2/2/1 5/2/1
f 9/2/1 8/2/1 7/2/1
f 10/2/1 8/2/1 9/2/1
f 13/1/1 12/1/1 11/1/1
f 14/1/1 12/1/1 13/1/1
f 17/2/1 16/2/1 15/2/1
f 18/2/1 16/2/1 17/2/1
f 21/1/1 20/1/1 19/1/1
f 22/1/1 20/1/1 21/1/1
f 23/1/2 24/1/2 25/1/2
f 25/1/2 24/1/2 26/1/2
f 27/1/2 28/1/2 29/1/2
f 29/1/2 28/1/2 30/1/2
f 31/2/2 32/2/2 33/2/2
f 33/2/2 32/2/2 34/2/2
f 35/2/2 36/2/2 37/2/2
f 37/2/2 36/2/2 38/2/2
f 39/2/2 40/2/2 41/2/2
f 41/2/2 40/2/2 42/2/2
f 42/2/2 40/2/2 43/2/2
f 43/2/2 40/2/2 44/2/2
f 49/1/3 48/1/3 47/1/3
f 50/1/3 48/1/3 49/1/3
f 53/1/3 52/1/3 51/1/3
f 54/1/3 52/1/3 53/1/3
f 55/2/3 46/2/3 45/2/3
f 56/2/3 46/2/3 55/2/3
f 59/2/3 58/2/3 57/2/3
f 61/2/3 59/2/3 57/2/3
f 61/2/3 60/2/3 59/2/3
f 62/2/3 60/2/3 61/2/3
f 63/2/3 60/2/3 62/2/3
f 65/2/3 61/2/3 57/2/3
f 66/2/3 64/2/3 63/2/3
f 66/2/3 63/2/3 62/2/3
f 67/2/3 65/2/3 57/2/3
f 67/2/3 66/2/3 65/2/3
f 68/2/3 64/2/3 66/2/3
f 68/2/3 66/2/3 67/2/3
f 69/2/3 67/2/3 57/2/3
f 70/2/3 64/2/3 68/2/3
f 71/2/3 64/2/3 70/2/3
f 72/2/3 64/2/3 71/2/3
f 73/2/3 70/2/3 69/2/3
f 73/2/3 71/2/3 70/2/3
f 74/2/3 71/2/3 73/2/3
f 75/2/3 69/2/3 57/2/3
f 75/2/3 73/2/3 69/2/3
f 76/2/3 73/2/3 75/2/3
f 77/2/4 78/2/4 79/2/4
f 79/2/4 80/2/4 81/2/4
f 79/2/4 81/2/4 83/2/4
f 81/2/4 82/2/4 83/2/4
f 83/2/4 82/2/4 84/2/4
f 77/2/4 79/2/4 85/2/4
f 79/2/4 83/2/4 85/2/4
f 85/2/4 83/2/4 86/2/4
f 77/2/4 85/2/4 87/2/4
f 87/2/4 85/2/4 88/2/4
f 91/2/5 90/2/5 89/2/5
f 92/2/5 90/2/5 91/2/5
f 97/1/5 94/1/5 93/1/5
f 98/1/5 94/1/5 97/1/5
f 99/1/5 96/1/5 95/1/5
f 100/1/5 96/1/5 99/1/5
f 101/2/6 102/2/6 103/2/6
f 103/2/6 102/2/6 104/2/6
f 105/1/6 106/1/6 109/1/6
f 109/1/6 106/1/6 110/1/6
f 107/1/6 108/1/6 111/1/6
f 111/1/6 108/1/6 112/1/6
f 113/2/6 114/2/6 117/2/6
f 117/2/6 114/2/6 118/2/6
f 115/2/6 116/2/6 119/2/6
f 119/2/6 116/2/6 120/2/6
f 121/2/6 122/2/6 125/2/6
f 125/2/6 122/2/6 126/2/6
f 123/2/6 124/2/6 127/2/6
f 127/2/6 124/2/6 128/2/6
f 129/2/6 130/2/6 131/2/6
f 131/2/6 130/2/6 132/2/6
