# MagicaVoxel @ Ephtracy

# group
o 

# material
mtllib table_2.mtl
usemtl palette

# normals
vn -1 0 0
vn 1 0 0
vn 0 0 1
vn 0 0 -1
vn 0 -1 0
vn 0 1 0

# texcoords
vt 0.501953 0.5
vt 0.505859 0.5
vt 0.513672 0.5

# verts
v -0.7 0.25 0.3
v -0.7 0.25 -0.3
v -0.7 0.35 0.3
v -0.7 0.35 -0.3
v -0.6 0.25 0.5
v -0.6 0.25 0.3
v -0.6 0.25 -0.3
v -0.6 0.25 -0.5
v -0.6 0.35 0.5
v -0.6 0.35 0.3
v -0.6 0.35 -0.3
v -0.6 0.35 -0.5
v -0.5 0.25 0.6
v -0.5 0.25 0.5
v -0.5 0.25 -0.5
v -0.5 0.25 -0.6
v -0.5 0.35 0.6
v -0.5 0.35 0.5
v -0.5 0.35 -0.5
v -0.5 0.35 -0.6
v -0.3 -0.35 0.1
v -0.3 -0.35 -0.1
v -0.3 -0.25 0.1
v -0.3 -0.25 -0.1
v -0.3 0.25 0.7
v -0.3 0.25 0.6
v -0.3 0.25 -0.6
v -0.3 0.25 -0.7
v -0.3 0.35 0.7
v -0.3 0.35 0.6
v -0.3 0.35 -0.6
v -0.3 0.35 -0.7
v -0.2 -0.35 0.2
v -0.2 -0.35 0.1
v -0.2 -0.35 -0.1
v -0.2 -0.35 -0.2
v -0.2 -0.25 0.2
v -0.2 -0.25 0.1
v -0.2 -0.25 -0.1
v -0.2 -0.25 -0.2
v -0.1 -0.35 0.3
v -0.1 -0.35 0.2
v -0.1 -0.35 -0.2
v -0.1 -0.35 -0.3
v -0.1 -0.25 0.3
v -0.1 -0.25 0.2
v -0.1 -0.25 0.1
v -0.1 -0.25 -0.1
v -0.1 -0.25 -0.2
v -0.1 -0.25 -0.3
v -0.1 0.25 0.1
v -0.1 0.25 0
v -0.1 0.25 -0.1
v 0.1 -0.35 0.3
v 0.1 -0.35 0.2
v 0.1 -0.35 -0.2
v 0.1 -0.35 -0.3
v 0.1 -0.25 0.3
v 0.1 -0.25 0.2
v 0.1 -0.25 0.1
v 0.1 -0.25 -0.1
v 0.1 -0.25 -0.2
v 0.1 -0.25 -0.3
v 0.1 0.25 0.1
v 0.1 0.25 0
v 0.1 0.25 -0.1
v 0.2 -0.35 0.2
v 0.2 -0.35 0.1
v 0.2 -0.35 -0.1
v 0.2 -0.35 -0.2
v 0.2 -0.25 0.2
v 0.2 -0.25 0.1
v 0.2 -0.25 -0.1
v 0.2 -0.25 -0.2
v 0.3 -0.35 0.1
v 0.3 -0.35 -0.1
v 0.3 -0.25 0.1
v 0.3 -0.25 -0.1
v 0.3 0.25 0.7
v 0.3 0.25 0.6
v 0.3 0.25 -0.6
v 0.3 0.25 -0.7
v 0.3 0.35 0.7
v 0.3 0.35 0.6
v 0.3 0.35 -0.6
v 0.3 0.35 -0.7
v 0.5 0.25 0.6
v 0.5 0.25 0.5
v 0.5 0.25 -0.5
v 0.5 0.25 -0.6
v 0.5 0.35 0.6
v 0.5 0.35 0.5
v 0.5 0.35 -0.5
v 0.5 0.35 -0.6
v 0.6 0.25 0.5
v 0.6 0.25 0.3
v 0.6 0.25 -0.3
v 0.6 0.25 -0.5
v 0.6 0.35 0.5
v 0.6 0.35 0.3
v 0.6 0.35 -0.3
v 0.6 0.35 -0.5
v 0.7 0.25 0.3
v 0.7 0.25 -0.3
v 0.7 0.35 0.3
v 0.7 0.35 -0.3
v -0.3 0.25 0.7
v -0.3 0.35 0.7
v 0.3 0.25 0.7
v 0.3 0.35 0.7
v -0.5 0.25 0.6
v -0.5 0.35 0.6
v -0.3 0.25 0.6
v -0.3 0.35 0.6
v 0.3 0.25 0.6
v 0.3 0.35 0.6
v 0.5 0.25 0.6
v 0.5 0.35 0.6
v -0.6 0.25 0.5
v -0.6 0.35 0.5
v -0.5 0.25 0.5
v -0.5 0.35 0.5
v 0.5 0.25 0.5
v 0.5 0.35 0.5
v 0.6 0.25 0.5
v 0.6 0.35 0.5
v -0.7 0.25 0.3
v -0.7 0.35 0.3
v -0.6 0.25 0.3
v -0.6 0.35 0.3
v -0.1 -0.35 0.3
v -0.1 -0.25 0.3
v 0.1 -0.35 0.3
v 0.1 -0.25 0.3
v 0.6 0.25 0.3
v 0.6 0.35 0.3
v 0.7 0.25 0.3
v 0.7 0.35 0.3
v -0.2 -0.35 0.2
v -0.2 -0.25 0.2
v -0.1 -0.35 0.2
v -0.1 -0.25 0.2
v 0.1 -0.35 0.2
v 0.1 -0.25 0.2
v 0.2 -0.35 0.2
v 0.2 -0.25 0.2
v -0.3 -0.35 0.1
v -0.3 -0.25 0.1
v -0.2 -0.35 0.1
v -0.2 -0.25 0.1
v -0.1 -0.25 0.1
v -0.1 0.25 0.1
v 0.1 -0.25 0.1
v 0.1 0.25 0.1
v 0.2 -0.35 0.1
v 0.2 -0.25 0.1
v 0.3 -0.35 0.1
v 0.3 -0.25 0.1
v -0.3 -0.35 -0.1
v -0.3 -0.25 -0.1
v -0.2 -0.35 -0.1
v -0.2 -0.25 -0.1
v -0.1 -0.25 -0.1
v -0.1 0.25 -0.1
v 0.1 -0.25 -0.1
v 0.1 0.25 -0.1
v 0.2 -0.35 -0.1
v 0.2 -0.25 -0.1
v 0.3 -0.35 -0.1
v 0.3 -0.25 -0.1
v -0.2 -0.35 -0.2
v -0.2 -0.25 -0.2
v -0.1 -0.35 -0.2
v -0.1 -0.25 -0.2
v 0.1 -0.35 -0.2
v 0.1 -0.25 -0.2
v 0.2 -0.35 -0.2
v 0.2 -0.25 -0.2
v -0.7 0.25 -0.3
v -0.7 0.35 -0.3
v -0.6 0.25 -0.3
v -0.6 0.35 -0.3
v -0.1 -0.35 -0.3
v -0.1 -0.25 -0.3
v 0.1 -0.35 -0.3
v 0.1 -0.25 -0.3
v 0.6 0.25 -0.3
v 0.6 0.35 -0.3
v 0.7 0.25 -0.3
v 0.7 0.35 -0.3
v -0.6 0.25 -0.5
v -0.6 0.35 -0.5
v -0.5 0.25 -0.5
v -0.5 0.35 -0.5
v 0.5 0.25 -0.5
v 0.5 0.35 -0.5
v 0.6 0.25 -0.5
v 0.6 0.35 -0.5
v -0.5 0.25 -0.6
v -0.5 0.35 -0.6
v -0.3 0.25 -0.6
v -0.3 0.35 -0.6
v 0.3 0.25 -0.6
v 0.3 0.35 -0.6
v 0.5 0.25 -0.6
v 0.5 0.35 -0.6
v -0.3 0.25 -0.7
v -0.3 0.35 -0.7
v 0.3 0.25 -0.7
v 0.3 0.35 -0.7
v -0.1 -0.35 0.3
v 0.1 -0.35 0.3
v -0.2 -0.35 0.2
v -0.1 -0.35 0.2
v 0.1 -0.35 0.2
v 0.2 -0.35 0.2
v -0.3 -0.35 0.1
v -0.2 -0.35 0.1
v 0.2 -0.35 0.1
v 0.3 -0.35 0.1
v -0.3 -0.35 -0.1
v -0.2 -0.35 -0.1
v 0.2 -0.35 -0.1
v 0.3 -0.35 -0.1
v -0.2 -0.35 -0.2
v -0.1 -0.35 -0.2
v 0.1 -0.35 -0.2
v 0.2 -0.35 -0.2
v -0.1 -0.35 -0.3
v 0.1 -0.35 -0.3
v -0.3 0.25 0.7
v 0.3 0.25 0.7
v -0.5 0.25 0.6
v -0.3 0.25 0.6
v -0.2 0.25 0.6
v -0.1 0.25 0.6
v 0.2 0.25 0.6
v 0.3 0.25 0.6
v 0.5 0.25 0.6
v -0.6 0.25 0.5
v -0.5 0.25 0.5
v -0.4 0.25 0.5
v -0.3 0.25 0.5
v -0.2 0.25 0.5
v -0.1 0.25 0.5
v 0 0.25 0.5
v 0.2 0.25 0.5
v 0.3 0.25 0.5
v 0.4 0.25 0.5
v 0.5 0.25 0.5
v 0.6 0.25 0.5
v -0.5 0.25 0.4
v -0.4 0.25 0.4
v -0.2 0.25 0.4
v 0 0.25 0.4
v 0.2 0.25 0.4
v 0.3 0.25 0.4
v 0.4 0.25 0.4
v 0.5 0.25 0.4
v -0.7 0.25 0.3
v -0.6 0.25 0.3
v -0.4 0.25 0.3
v -0.3 0.25 0.3
v -0.2 0.25 0.3
v -0.1 0.25 0.3
v 0.1 0.25 0.3
v 0.2 0.25 0.3
v 0.3 0.25 0.3
v 0.6 0.25 0.3
v 0.7 0.25 0.3
v -0.6 0.25 0.2
v -0.5 0.25 0.2
v -0.4 0.25 0.2
v -0.3 0.25 0.2
v -0.2 0.25 0.2
v -0.1 0.25 0.2
v 0.1 0.25 0.2
v 0.2 0.25 0.2
v 0.3 0.25 0.2
v 0.4 0.25 0.2
v 0.5 0.25 0.2
v 0.6 0.25 0.2
v -0.3 0.25 0.1
v -0.2 0.25 0.1
v -0.1 0.25 0.1
v 0.1 0.25 0.1
v 0.2 0.25 0.1
v 0.3 0.25 0.1
v -0.6 0.25 0
v -0.5 0.25 0
v -0.2 0.25 0
v -0.1 0.25 0
v 0.1 0.25 0
v 0.2 0.25 0
v 0.5 0.25 0
v 0.6 0.25 0
v -0.3 0.25 -0.1
v -0.2 0.25 -0.1
v -0.1 0.25 -0.1
v 0.1 0.25 -0.1
v 0.2 0.25 -0.1
v 0.3 0.25 -0.1
v 0.5 0.25 -0.1
v 0.6 0.25 -0.1
v -0.6 0.25 -0.2
v -0.5 0.25 -0.2
v -0.4 0.25 -0.2
v -0.3 0.25 -0.2
v -0.2 0.25 -0.2
v -0.1 0.25 -0.2
v 0.1 0.25 -0.2
v 0.2 0.25 -0.2
v 0.3 0.25 -0.2
v 0.4 0.25 -0.2
v 0.5 0.25 -0.2
v 0.6 0.25 -0.2
v -0.7 0.25 -0.3
v -0.6 0.25 -0.3
v -0.5 0.25 -0.3
v -0.3 0.25 -0.3
v -0.2 0.25 -0.3
v -0.1 0.25 -0.3
v 0.1 0.25 -0.3
v 0.2 0.25 -0.3
v 0.3 0.25 -0.3
v 0.6 0.25 -0.3
v 0.7 0.25 -0.3
v -0.5 0.25 -0.4
v -0.4 0.25 -0.4
v -0.3 0.25 -0.4
v -0.2 0.25 -0.4
v 0.1 0.25 -0.4
v 0.2 0.25 -0.4
v 0.3 0.25 -0.4
v 0.4 0.25 -0.4
v 0.5 0.25 -0.4
v -0.6 0.25 -0.5
v -0.5 0.25 -0.5
v -0.4 0.25 -0.5
v -0.2 0.25 -0.5
v 0.1 0.25 -0.5
v 0.2 0.25 -0.5
v 0.3 0.25 -0.5
v 0.4 0.25 -0.5
v 0.5 0.25 -0.5
v 0.6 0.25 -0.5
v -0.5 0.25 -0.6
v -0.3 0.25 -0.6
v -0.2 0.25 -0.6
v 0.2 0.25 -0.6
v 0.3 0.25 -0.6
v 0.5 0.25 -0.6
v -0.3 0.25 -0.7
v 0.3 0.25 -0.7
v -0.1 -0.25 0.3
v 0.1 -0.25 0.3
v -0.2 -0.25 0.2
v -0.1 -0.25 0.2
v 0.1 -0.25 0.2
v 0.2 -0.25 0.2
v -0.3 -0.25 0.1
v -0.2 -0.25 0.1
v -0.1 -0.25 0.1
v 0.1 -0.25 0.1
v 0.2 -0.25 0.1
v 0.3 -0.25 0.1
v -0.3 -0.25 -0.1
v -0.2 -0.25 -0.1
v -0.1 -0.25 -0.1
v 0.1 -0.25 -0.1
v 0.2 -0.25 -0.1
v 0.3 -0.25 -0.1
v -0.2 -0.25 -0.2
v -0.1 -0.25 -0.2
v 0.1 -0.25 -0.2
v 0.2 -0.25 -0.2
v -0.1 -0.25 -0.3
v 0.1 -0.25 -0.3
v -0.3 0.35 0.7
v 0.3 0.35 0.7
v -0.5 0.35 0.6
v -0.3 0.35 0.6
v -0.2 0.35 0.6
v -0.1 0.35 0.6
v 0.2 0.35 0.6
v 0.3 0.35 0.6
v 0.5 0.35 0.6
v -0.6 0.35 0.5
v -0.5 0.35 0.5
v -0.4 0.35 0.5
v -0.3 0.35 0.5
v -0.2 0.35 0.5
v -0.1 0.35 0.5
v 0 0.35 0.5
v 0.2 0.35 0.5
v 0.3 0.35 0.5
v 0.4 0.35 0.5
v 0.5 0.35 0.5
v 0.6 0.35 0.5
v -0.5 0.35 0.4
v -0.4 0.35 0.4
v -0.2 0.35 0.4
v 0 0.35 0.4
v 0.2 0.35 0.4
v 0.3 0.35 0.4
v 0.4 0.35 0.4
v 0.5 0.35 0.4
v -0.7 0.35 0.3
v -0.6 0.35 0.3
v -0.4 0.35 0.3
v -0.3 0.35 0.3
v -0.2 0.35 0.3
v -0.1 0.35 0.3
v 0.1 0.35 0.3
v 0.2 0.35 0.3
v 0.3 0.35 0.3
v 0.6 0.35 0.3
v 0.7 0.35 0.3
v -0.6 0.35 0.2
v -0.5 0.35 0.2
v -0.4 0.35 0.2
v -0.3 0.35 0.2
v -0.2 0.35 0.2
v -0.1 0.35 0.2
v 0.1 0.35 0.2
v 0.2 0.35 0.2
v 0.3 0.35 0.2
v 0.4 0.35 0.2
v 0.5 0.35 0.2
v 0.6 0.35 0.2
v -0.3 0.35 0.1
v -0.2 0.35 0.1
v -0.1 0.35 0.1
v 0.1 0.35 0.1
v 0.2 0.35 0.1
v 0.3 0.35 0.1
v -0.6 0.35 0
v -0.5 0.35 0
v -0.2 0.35 0
v -0.1 0.35 0
v 0.1 0.35 0
v 0.2 0.35 0
v 0.5 0.35 0
v 0.6 0.35 0
v -0.3 0.35 -0.1
v -0.2 0.35 -0.1
v -0.1 0.35 -0.1
v 0.1 0.35 -0.1
v 0.2 0.35 -0.1
v 0.3 0.35 -0.1
v 0.5 0.35 -0.1
v 0.6 0.35 -0.1
v -0.6 0.35 -0.2
v -0.5 0.35 -0.2
v -0.4 0.35 -0.2
v -0.3 0.35 -0.2
v -0.2 0.35 -0.2
v -0.1 0.35 -0.2
v 0.1 0.35 -0.2
v 0.2 0.35 -0.2
v 0.3 0.35 -0.2
v 0.4 0.35 -0.2
v 0.5 0.35 -0.2
v 0.6 0.35 -0.2
v -0.7 0.35 -0.3
v -0.6 0.35 -0.3
v -0.5 0.35 -0.3
v -0.3 0.35 -0.3
v -0.2 0.35 -0.3
v -0.1 0.35 -0.3
v 0.1 0.35 -0.3
v 0.2 0.35 -0.3
v 0.3 0.35 -0.3
v 0.6 0.35 -0.3
v 0.7 0.35 -0.3
v -0.5 0.35 -0.4
v -0.4 0.35 -0.4
v -0.3 0.35 -0.4
v -0.2 0.35 -0.4
v 0.1 0.35 -0.4
v 0.2 0.35 -0.4
v 0.3 0.35 -0.4
v 0.4 0.35 -0.4
v 0.5 0.35 -0.4
v -0.6 0.35 -0.5
v -0.5 0.35 -0.5
v -0.4 0.35 -0.5
v -0.2 0.35 -0.5
v 0.1 0.35 -0.5
v 0.2 0.35 -0.5
v 0.3 0.35 -0.5
v 0.4 0.35 -0.5
v 0.5 0.35 -0.5
v 0.6 0.35 -0.5
v -0.5 0.35 -0.6
v -0.3 0.35 -0.6
v -0.2 0.35 -0.6
v 0.2 0.35 -0.6
v 0.3 0.35 -0.6
v 0.5 0.35 -0.6
v -0.3 0.35 -0.7
v 0.3 0.35 -0.7

# faces
f 3/1/1 2/1/1 1/1/1
f 4/1/1 2/1/1 3/1/1
f 9/1/1 6/1/1 5/1/1
f 10/1/1 6/1/1 9/1/1
f 11/1/1 8/1/1 7/1/1
f 12/1/1 8/1/1 11/1/1
f 17/1/1 14/1/1 13/1/1
f 18/1/1 14/1/1 17/1/1
f 19/1/1 16/1/1 15/1/1
f 20/1/1 16/1/1 19/1/1
f 23/1/1 22/1/1 21/1/1
f 24/1/1 22/1/1 23/1/1
f 29/1/1 26/1/1 25/1/1
f 30/1/1 26/1/1 29/1/1
f 31/1/1 28/1/1 27/1/1
f 32/1/1 28/1/1 31/1/1
f 37/1/1 34/1/1 33/1/1
f 38/1/1 34/1/1 37/1/1
f 39/1/1 36/1/1 35/1/1
f 40/1/1 36/1/1 39/1/1
f 45/1/1 42/1/1 41/1/1
f 46/1/1 42/1/1 45/1/1
f 49/1/1 44/1/1 43/1/1
f 50/1/1 44/1/1 49/1/1
f 51/1/1 48/1/1 47/1/1
f 52/1/1 48/1/1 51/1/1
f 53/1/1 48/1/1 52/1/1
f 54/1/2 55/1/2 58/1/2
f 58/1/2 55/1/2 59/1/2
f 56/1/2 57/1/2 62/1/2
f 62/1/2 57/1/2 63/1/2
f 60/1/2 61/1/2 64/1/2
f 64/1/2 61/1/2 65/1/2
f 65/1/2 61/1/2 66/1/2
f 67/1/2 68/1/2 71/1/2
f 71/1/2 68/1/2 72/1/2
f 69/1/2 70/1/2 73/1/2
f 73/1/2 70/1/2 74/1/2
f 75/1/2 76/1/2 77/1/2
f 77/1/2 76/1/2 78/1/2
f 79/1/2 80/1/2 83/1/2
f 83/1/2 80/1/2 84/1/2
f 81/1/2 82/1/2 85/1/2
f 85/1/2 82/1/2 86/1/2
f 87/1/2 88/1/2 91/1/2
f 91/1/2 88/1/2 92/1/2
f 89/1/2 90/1/2 93/1/2
f 93/1/2 90/1/2 94/1/2
f 95/1/2 96/1/2 99/1/2
f 99/1/2 96/1/2 100/1/2
f 97/1/2 98/1/2 101/1/2
f 101/1/2 98/1/2 102/1/2
f 103/1/2 104/1/2 105/1/2
f 105/1/2 104/1/2 106/1/2
f 109/1/3 108/1/3 107/1/3
f 110/1/3 108/1/3 109/1/3
f 113/1/3 112/1/3 111/1/3
f 114/1/3 112/1/3 113/1/3
f 117/1/3 116/1/3 115/1/3
f 118/1/3 116/1/3 117/1/3
f 121/1/3 120/1/3 119/1/3
f 122/1/3 120/1/3 121/1/3
f 125/1/3 124/1/3 123/1/3
f 126/1/3 124/1/3 125/1/3
f 129/1/3 128/1/3 127/1/3
f 130/1/3 128/1/3 129/1/3
f 133/1/3 132/1/3 131/1/3
f 134/1/3 132/1/3 133/1/3
f 137/1/3 136/1/3 135/1/3
f 138/1/3 136/1/3 137/1/3
f 141/1/3 140/1/3 139/1/3
f 142/1/3 140/1/3 141/1/3
f 145/1/3 144/1/3 143/1/3
f 146/1/3 144/1/3 145/1/3
f 149/1/3 148/1/3 147/1/3
f 150/1/3 148/1/3 149/1/3
f 153/1/3 152/1/3 151/1/3
f 154/1/3 152/1/3 153/1/3
f 157/1/3 156/1/3 155/1/3
f 158/1/3 156/1/3 157/1/3
f 159/1/4 160/1/4 161/1/4
f 161/1/4 160/1/4 162/1/4
f 163/1/4 164/1/4 165/1/4
f 165/1/4 164/1/4 166/1/4
f 167/1/4 168/1/4 169/1/4
f 169/1/4 168/1/4 170/1/4
f 171/1/4 172/1/4 173/1/4
f 173/1/4 172/1/4 174/1/4
f 175/1/4 176/1/4 177/1/4
f 177/1/4 176/1/4 178/1/4
f 179/1/4 180/1/4 181/1/4
f 181/1/4 180/1/4 182/1/4
f 183/1/4 184/1/4 185/1/4
f 185/1/4 184/1/4 186/1/4
f 187/1/4 188/1/4 189/1/4
f 189/1/4 188/1/4 190/1/4
f 191/1/4 192/1/4 193/1/4
f 193/1/4 192/1/4 194/1/4
f 195/1/4 196/1/4 197/1/4
f 197/1/4 196/1/4 198/1/4
f 199/1/4 200/1/4 201/1/4
f 201/1/4 200/1/4 202/1/4
f 203/1/4 204/1/4 205/1/4
f 205/1/4 204/1/4 206/1/4
f 207/1/4 208/1/4 209/1/4
f 209/1/4 208/1/4 210/1/4
f 214/1/5 212/1/5 211/1/5
f 215/1/5 212/1/5 214/1/5
f 218/1/5 214/1/5 213/1/5
f 218/1/5 216/1/5 215/1/5
f 218/1/5 215/1/5 214/1/5
f 219/1/5 216/1/5 218/1/5
f 221/1/5 218/1/5 217/1/5
f 221/1/5 220/1/5 219/1/5
f 221/1/5 219/1/5 218/1/5
f 222/1/5 220/1/5 221/1/5
f 223/1/5 220/1/5 222/1/5
f 224/1/5 220/1/5 223/1/5
f 225/1/5 223/1/5 222/1/5
f 226/1/5 223/1/5 225/1/5
f 227/1/5 223/1/5 226/1/5
f 228/1/5 223/1/5 227/1/5
f 229/1/5 227/1/5 226/1/5
f 230/1/5 227/1/5 229/1/5
f 234/1/5 232/1/5 231/1/5
f 235/1/5 232/1/5 234/1/5
f 236/1/5 232/1/5 235/1/5
f 237/1/5 232/1/5 236/1/5
f 238/1/5 232/1/5 237/1/5
f 241/1/5 234/1/5 233/1/5
f 241/1/5 235/1/5 234/1/5
f 242/1/5 235/1/5 241/1/5
f 243/1/5 235/1/5 242/1/5
f 244/3/5 236/3/5 235/3/5
f 244/1/5 235/1/5 243/1/5
f 245/2/5 237/2/5 236/2/5
f 245/3/5 236/3/5 244/3/5
f 246/2/5 237/2/5 245/2/5
f 247/1/5 239/1/5 238/1/5
f 247/2/5 237/2/5 246/2/5
f 247/1/5 238/1/5 237/1/5
f 248/1/5 239/1/5 247/1/5
f 249/1/5 239/1/5 248/1/5
f 250/1/5 239/1/5 249/1/5
f 252/1/5 241/1/5 240/1/5
f 252/1/5 242/1/5 241/1/5
f 253/3/5 243/3/5 242/3/5
f 253/1/5 242/1/5 252/1/5
f 254/2/5 246/2/5 245/2/5
f 254/2/5 245/2/5 244/2/5
f 254/2/5 244/2/5 243/2/5
f 255/3/5 247/3/5 246/3/5
f 255/2/5 246/2/5 254/2/5
f 255/3/5 248/3/5 247/3/5
f 256/3/5 248/3/5 255/3/5
f 257/2/5 249/2/5 248/2/5
f 257/3/5 248/3/5 256/3/5
f 258/1/5 251/1/5 250/1/5
f 258/2/5 249/2/5 257/2/5
f 258/1/5 250/1/5 249/1/5
f 259/1/5 251/1/5 258/1/5
f 261/1/5 252/1/5 240/1/5
f 262/3/5 243/3/5 253/3/5
f 262/2/5 253/2/5 252/2/5
f 263/2/5 254/2/5 243/2/5
f 263/3/5 243/3/5 262/3/5
f 264/1/5 256/1/5 255/1/5
f 264/2/5 254/2/5 263/2/5
f 264/1/5 255/1/5 254/1/5
f 265/1/5 256/1/5 264/1/5
f 266/1/5 256/1/5 265/1/5
f 267/2/5 257/2/5 256/2/5
f 267/1/5 256/1/5 266/1/5
f 267/2/5 258/2/5 257/2/5
f 267/2/5 259/2/5 258/2/5
f 268/2/5 259/2/5 267/2/5
f 269/1/5 251/1/5 259/1/5
f 271/1/5 261/1/5 260/1/5
f 271/1/5 252/1/5 261/1/5
f 272/2/5 263/2/5 262/2/5
f 272/1/5 252/1/5 271/1/5
f 272/2/5 262/2/5 252/2/5
f 273/2/5 263/2/5 272/2/5
f 274/1/5 265/1/5 264/1/5
f 274/2/5 263/2/5 273/2/5
f 274/1/5 264/1/5 263/1/5
f 275/1/5 265/1/5 274/1/5
f 276/2/5 266/2/5 265/2/5
f 276/1/5 265/1/5 275/1/5
f 277/1/5 268/1/5 267/1/5
f 277/2/5 266/2/5 276/2/5
f 277/1/5 267/1/5 266/1/5
f 278/1/5 268/1/5 277/1/5
f 279/2/5 259/2/5 268/2/5
f 279/1/5 268/1/5 278/1/5
f 280/2/5 259/2/5 279/2/5
f 281/1/5 270/1/5 269/1/5
f 281/2/5 259/2/5 280/2/5
f 281/1/5 269/1/5 259/1/5
f 282/1/5 270/1/5 281/1/5
f 283/1/5 275/1/5 274/1/5
f 283/1/5 274/1/5 273/1/5
f 284/2/5 276/2/5 275/2/5
f 284/1/5 275/1/5 283/1/5
f 284/2/5 277/2/5 276/2/5
f 285/2/5 277/2/5 284/2/5
f 286/3/5 278/3/5 277/3/5
f 286/2/5 277/2/5 285/2/5
f 287/1/5 280/1/5 279/1/5
f 287/3/5 278/3/5 286/3/5
f 287/1/5 279/1/5 278/1/5
f 288/1/5 280/1/5 287/1/5
f 289/1/5 271/1/5 260/1/5
f 289/3/5 272/3/5 271/3/5
f 290/2/5 273/2/5 272/2/5
f 290/3/5 272/3/5 289/3/5
f 291/2/5 284/2/5 283/2/5
f 291/2/5 285/2/5 284/2/5
f 292/2/5 285/2/5 291/2/5
f 293/3/5 287/3/5 286/3/5
f 294/2/5 288/2/5 287/2/5
f 294/3/5 287/3/5 293/3/5
f 295/2/5 282/2/5 281/2/5
f 295/2/5 281/2/5 280/2/5
f 296/1/5 270/1/5 282/1/5
f 296/2/5 282/2/5 295/2/5
f 297/1/5 283/1/5 273/1/5
f 297/2/5 291/2/5 283/2/5
f 298/3/5 292/3/5 291/3/5
f 298/2/5 291/2/5 297/2/5
f 299/3/5 292/3/5 298/3/5
f 300/2/5 294/2/5 293/2/5
f 301/2/5 288/2/5 294/2/5
f 301/2/5 294/2/5 300/2/5
f 302/1/5 280/1/5 288/1/5
f 302/2/5 288/2/5 301/2/5
f 303/2/5 295/2/5 280/2/5
f 303/3/5 296/3/5 295/3/5
f 304/1/5 270/1/5 296/1/5
f 304/3/5 296/3/5 303/3/5
f 305/2/5 290/2/5 289/2/5
f 305/1/5 289/1/5 260/1/5
f 306/2/5 273/2/5 290/2/5
f 306/2/5 290/2/5 305/2/5
f 307/1/5 297/1/5 273/1/5
f 307/2/5 273/2/5 306/2/5
f 307/1/5 298/1/5 297/1/5
f 308/1/5 298/1/5 307/1/5
f 309/2/5 301/2/5 300/2/5
f 309/1/5 298/1/5 308/1/5
f 309/2/5 300/2/5 299/2/5
f 309/2/5 299/2/5 298/2/5
f 310/2/5 301/2/5 309/2/5
f 311/2/5 301/2/5 310/2/5
f 312/1/5 302/1/5 301/1/5
f 312/2/5 301/2/5 311/2/5
f 313/1/5 280/1/5 302/1/5
f 313/1/5 302/1/5 312/1/5
f 314/2/5 303/2/5 280/2/5
f 314/1/5 280/1/5 313/1/5
f 314/2/5 304/2/5 303/2/5
f 315/2/5 304/2/5 314/2/5
f 316/1/5 270/1/5 304/1/5
f 316/2/5 304/2/5 315/2/5
f 317/1/5 305/1/5 260/1/5
f 317/1/5 306/1/5 305/1/5
f 318/1/5 306/1/5 317/1/5
f 319/2/5 308/2/5 307/2/5
f 319/1/5 306/1/5 318/1/5
f 319/2/5 307/2/5 306/2/5
f 320/1/5 310/1/5 309/1/5
f 320/2/5 308/2/5 319/2/5
f 320/1/5 309/1/5 308/1/5
f 321/1/5 310/1/5 320/1/5
f 322/2/5 311/2/5 310/2/5
f 322/1/5 310/1/5 321/1/5
f 323/1/5 312/1/5 311/1/5
f 323/2/5 311/2/5 322/2/5
f 323/1/5 313/1/5 312/1/5
f 324/1/5 313/1/5 323/1/5
f 325/2/5 315/2/5 314/2/5
f 325/1/5 313/1/5 324/1/5
f 325/2/5 314/2/5 313/2/5
f 326/1/5 270/1/5 316/1/5
f 326/1/5 316/1/5 315/1/5
f 327/1/5 270/1/5 326/1/5
f 328/3/5 320/3/5 319/3/5
f 328/1/5 319/1/5 318/1/5
f 329/3/5 320/3/5 328/3/5
f 330/2/5 321/2/5 320/2/5
f 330/3/5 320/3/5 329/3/5
f 331/1/5 324/1/5 323/1/5
f 331/2/5 321/2/5 330/2/5
f 331/1/5 322/1/5 321/1/5
f 331/1/5 323/1/5 322/1/5
f 332/1/5 324/1/5 331/1/5
f 333/2/5 325/2/5 324/2/5
f 333/1/5 324/1/5 332/1/5
f 334/2/5 315/2/5 325/2/5
f 334/2/5 325/2/5 333/2/5
f 335/2/5 315/2/5 334/2/5
f 336/1/5 326/1/5 315/1/5
f 336/2/5 315/2/5 335/2/5
f 337/1/5 328/1/5 318/1/5
f 337/1/5 329/1/5 328/1/5
f 338/1/5 329/1/5 337/1/5
f 339/3/5 330/3/5 329/3/5
f 339/1/5 329/1/5 338/1/5
f 339/3/5 331/3/5 330/3/5
f 340/2/5 332/2/5 331/2/5
f 340/3/5 331/3/5 339/3/5
f 341/3/5 333/3/5 332/3/5
f 341/2/5 332/2/5 340/2/5
f 341/3/5 334/3/5 333/3/5
f 342/3/5 334/3/5 341/3/5
f 343/2/5 335/2/5 334/2/5
f 343/3/5 334/3/5 342/3/5
f 344/1/5 336/1/5 335/1/5
f 344/2/5 335/2/5 343/2/5
f 345/1/5 326/1/5 336/1/5
f 345/1/5 336/1/5 344/1/5
f 346/1/5 326/1/5 345/1/5
f 347/1/5 340/1/5 339/1/5
f 347/1/5 339/1/5 338/1/5
f 348/1/5 340/1/5 347/1/5
f 349/2/5 342/2/5 341/2/5
f 349/1/5 340/1/5 348/1/5
f 349/2/5 341/2/5 340/2/5
f 350/1/5 345/1/5 344/1/5
f 350/2/5 342/2/5 349/2/5
f 350/1/5 344/1/5 343/1/5
f 350/1/5 343/1/5 342/1/5
f 351/1/5 345/1/5 350/1/5
f 352/1/5 345/1/5 351/1/5
f 353/1/5 349/1/5 348/1/5
f 353/1/5 351/1/5 350/1/5
f 353/1/5 350/1/5 349/1/5
f 354/1/5 351/1/5 353/1/5
f 355/1/6 356/1/6 358/1/6
f 358/1/6 356/1/6 359/1/6
f 357/1/6 358/1/6 362/1/6
f 359/1/6 360/1/6 362/1/6
f 358/1/6 359/1/6 362/1/6
f 362/1/6 360/1/6 363/1/6
f 363/1/6 360/1/6 364/1/6
f 364/1/6 360/1/6 365/1/6
f 361/1/6 362/1/6 367/1/6
f 362/1/6 363/1/6 367/1/6
f 367/1/6 363/1/6 368/1/6
f 368/1/6 363/1/6 369/1/6
f 365/1/6 366/1/6 370/1/6
f 364/1/6 365/1/6 370/1/6
f 370/1/6 366/1/6 371/1/6
f 371/1/6 366/1/6 372/1/6
f 368/1/6 369/1/6 373/1/6
f 370/1/6 371/1/6 373/1/6
f 369/1/6 370/1/6 373/1/6
f 373/1/6 371/1/6 374/1/6
f 374/1/6 371/1/6 375/1/6
f 375/1/6 371/1/6 376/1/6
f 374/1/6 375/1/6 377/1/6
f 377/1/6 375/1/6 378/1/6
f 379/1/6 380/1/6 382/1/6
f 382/1/6 380/1/6 383/1/6
f 383/1/6 380/1/6 384/1/6
f 384/1/6 380/1/6 385/1/6
f 385/1/6 380/1/6 386/1/6
f 381/1/6 382/1/6 389/1/6
f 382/1/6 383/1/6 389/1/6
f 389/1/6 383/1/6 390/1/6
f 390/1/6 383/1/6 391/1/6
f 383/3/6 384/3/6 392/3/6
f 391/1/6 383/1/6 392/1/6
f 384/2/6 385/2/6 393/2/6
f 392/3/6 384/3/6 393/3/6
f 393/2/6 385/2/6 394/2/6
f 386/1/6 387/1/6 395/1/6
f 394/2/6 385/2/6 395/2/6
f 385/1/6 386/1/6 395/1/6
f 395/1/6 387/1/6 396/1/6
f 396/1/6 387/1/6 397/1/6
f 397/1/6 387/1/6 398/1/6
f 388/1/6 389/1/6 400/1/6
f 389/1/6 390/1/6 400/1/6
f 390/3/6 391/3/6 401/3/6
f 400/1/6 390/1/6 401/1/6
f 393/2/6 394/2/6 402/2/6
f 392/2/6 393/2/6 402/2/6
f 391/2/6 392/2/6 402/2/6
f 394/3/6 395/3/6 403/3/6
f 402/2/6 394/2/6 403/2/6
f 395/3/6 396/3/6 403/3/6
f 403/3/6 396/3/6 404/3/6
f 396/2/6 397/2/6 405/2/6
f 404/3/6 396/3/6 405/3/6
f 398/1/6 399/1/6 406/1/6
f 405/2/6 397/2/6 406/2/6
f 397/1/6 398/1/6 406/1/6
f 406/1/6 399/1/6 407/1/6
f 388/1/6 400/1/6 409/1/6
f 401/3/6 391/3/6 410/3/6
f 400/2/6 401/2/6 410/2/6
f 391/2/6 402/2/6 411/2/6
f 410/3/6 391/3/6 411/3/6
f 403/1/6 404/1/6 412/1/6
f 411/2/6 402/2/6 412/2/6
f 402/1/6 403/1/6 412/1/6
f 412/1/6 404/1/6 413/1/6
f 413/1/6 404/1/6 414/1/6
f 404/2/6 405/2/6 415/2/6
f 414/1/6 404/1/6 415/1/6
f 405/2/6 406/2/6 415/2/6
f 406/2/6 407/2/6 415/2/6
f 415/2/6 407/2/6 416/2/6
f 407/1/6 399/1/6 417/1/6
f 408/1/6 409/1/6 419/1/6
f 409/1/6 400/1/6 419/1/6
f 410/2/6 411/2/6 420/2/6
f 419/1/6 400/1/6 420/1/6
f 400/2/6 410/2/6 420/2/6
f 420/2/6 411/2/6 421/2/6
f 412/1/6 413/1/6 422/1/6
f 421/2/6 411/2/6 422/2/6
f 411/1/6 412/1/6 422/1/6
f 422/1/6 413/1/6 423/1/6
f 413/2/6 414/2/6 424/2/6
f 423/1/6 413/1/6 424/1/6
f 415/1/6 416/1/6 425/1/6
f 424/2/6 414/2/6 425/2/6
f 414/1/6 415/1/6 425/1/6
f 425/1/6 416/1/6 426/1/6
f 416/2/6 407/2/6 427/2/6
f 426/1/6 416/1/6 427/1/6
f 427/2/6 407/2/6 428/2/6
f 417/1/6 418/1/6 429/1/6
f 428/2/6 407/2/6 429/2/6
f 407/1/6 417/1/6 429/1/6
f 429/1/6 418/1/6 430/1/6
f 422/1/6 423/1/6 431/1/6
f 421/1/6 422/1/6 431/1/6
f 423/2/6 424/2/6 432/2/6
f 431/1/6 423/1/6 432/1/6
f 424/2/6 425/2/6 432/2/6
f 432/2/6 425/2/6 433/2/6
f 425/3/6 426/3/6 434/3/6
f 433/2/6 425/2/6 434/2/6
f 427/1/6 428/1/6 435/1/6
f 434/3/6 426/3/6 435/3/6
f 426/1/6 427/1/6 435/1/6
f 435/1/6 428/1/6 436/1/6
f 408/1/6 419/1/6 437/1/6
f 419/3/6 420/3/6 437/3/6
f 420/2/6 421/2/6 438/2/6
f 437/3/6 420/3/6 438/3/6
f 431/2/6 432/2/6 439/2/6
f 432/2/6 433/2/6 439/2/6
f 433/1/6 434/1/6 440/1/6
f 439/2/6 433/2/6 440/2/6
f 434/3/6 435/3/6 441/3/6
f 440/1/6 434/1/6 441/1/6
f 435/2/6 436/2/6 442/2/6
f 441/3/6 435/3/6 442/3/6
f 429/2/6 430/2/6 443/2/6
f 428/2/6 429/2/6 443/2/6
f 430/1/6 418/1/6 444/1/6
f 443/2/6 430/2/6 444/2/6
f 431/2/6 439/2/6 445/2/6
f 421/1/6 431/1/6 445/1/6
f 439/3/6 440/3/6 446/3/6
f 445/2/6 439/2/6 446/2/6
f 440/1/6 441/1/6 447/1/6
f 446/3/6 440/3/6 447/3/6
f 441/2/6 442/2/6 448/2/6
f 447/1/6 441/1/6 448/1/6
f 442/2/6 436/2/6 449/2/6
f 448/2/6 442/2/6 449/2/6
f 436/1/6 428/1/6 450/1/6
f 449/2/6 436/2/6 450/2/6
f 428/2/6 443/2/6 451/2/6
f 443/3/6 444/3/6 451/3/6
f 444/1/6 418/1/6 452/1/6
f 451/3/6 444/3/6 452/3/6
f 437/2/6 438/2/6 453/2/6
f 408/1/6 437/1/6 453/1/6
f 438/2/6 421/2/6 454/2/6
f 453/2/6 438/2/6 454/2/6
f 445/1/6 446/1/6 455/1/6
f 454/2/6 421/2/6 455/2/6
f 421/1/6 445/1/6 455/1/6
f 455/1/6 446/1/6 456/1/6
f 448/2/6 449/2/6 457/2/6
f 456/1/6 446/1/6 457/1/6
f 447/2/6 448/2/6 457/2/6
f 446/2/6 447/2/6 457/2/6
f 457/2/6 449/2/6 458/2/6
f 458/2/6 449/2/6 459/2/6
f 449/1/6 450/1/6 460/1/6
f 459/2/6 449/2/6 460/2/6
f 450/1/6 428/1/6 461/1/6
f 460/1/6 450/1/6 461/1/6
f 428/2/6 451/2/6 462/2/6
f 461/1/6 428/1/6 462/1/6
f 451/2/6 452/2/6 462/2/6
f 462/2/6 452/2/6 463/2/6
f 452/1/6 418/1/6 464/1/6
f 463/2/6 452/2/6 464/2/6
f 408/1/6 453/1/6 465/1/6
f 453/1/6 454/1/6 465/1/6
f 465/1/6 454/1/6 466/1/6
f 455/2/6 456/2/6 467/2/6
f 466/1/6 454/1/6 467/1/6
f 454/2/6 455/2/6 467/2/6
f 457/1/6 458/1/6 468/1/6
f 467/2/6 456/2/6 468/2/6
f 456/1/6 457/1/6 468/1/6
f 468/1/6 458/1/6 469/1/6
f 458/2/6 459/2/6 470/2/6
f 469/1/6 458/1/6 470/1/6
f 460/1/6 461/1/6 471/1/6
f 470/2/6 459/2/6 471/2/6
f 459/1/6 460/1/6 471/1/6
f 471/1/6 461/1/6 472/1/6
f 462/2/6 463/2/6 473/2/6
f 472/1/6 461/1/6 473/1/6
f 461/2/6 462/2/6 473/2/6
f 464/1/6 418/1/6 474/1/6
f 463/1/6 464/1/6 474/1/6
f 474/1/6 418/1/6 475/1/6
f 467/3/6 468/3/6 476/3/6
f 466/1/6 467/1/6 476/1/6
f 476/3/6 468/3/6 477/3/6
f 468/2/6 469/2/6 478/2/6
f 477/3/6 468/3/6 478/3/6
f 469/1/6 470/1/6 479/1/6
f 478/2/6 469/2/6 479/2/6
f 471/1/6 472/1/6 479/1/6
f 470/1/6 471/1/6 479/1/6
f 479/1/6 472/1/6 480/1/6
f 472/2/6 473/2/6 481/2/6
f 480/1/6 472/1/6 481/1/6
f 473/2/6 463/2/6 482/2/6
f 481/2/6 473/2/6 482/2/6
f 482/2/6 463/2/6 483/2/6
f 463/1/6 474/1/6 484/1/6
f 483/2/6 463/2/6 484/2/6
f 466/1/6 476/1/6 485/1/6
f 476/1/6 477/1/6 485/1/6
f 485/1/6 477/1/6 486/1/6
f 477/3/6 478/3/6 487/3/6
f 486/1/6 477/1/6 487/1/6
f 478/3/6 479/3/6 487/3/6
f 479/2/6 480/2/6 488/2/6
f 487/3/6 479/3/6 488/3/6
f 480/3/6 481/3/6 489/3/6
f 488/2/6 480/2/6 489/2/6
f 481/3/6 482/3/6 489/3/6
f 489/3/6 482/3/6 490/3/6
f 482/2/6 483/2/6 491/2/6
f 490/3/6 482/3/6 491/3/6
f 483/1/6 484/1/6 492/1/6
f 491/2/6 483/2/6 492/2/6
f 484/1/6 474/1/6 493/1/6
f 492/1/6 484/1/6 493/1/6
f 493/1/6 474/1/6 494/1/6
f 487/1/6 488/1/6 495/1/6
f 486/1/6 487/1/6 495/1/6
f 495/1/6 488/1/6 496/1/6
f 489/2/6 490/2/6 497/2/6
f 496/1/6 488/1/6 497/1/6
f 488/2/6 489/2/6 497/2/6
f 492/1/6 493/1/6 498/1/6
f 497/2/6 490/2/6 498/2/6
f 491/1/6 492/1/6 498/1/6
f 490/1/6 491/1/6 498/1/6
f 498/1/6 493/1/6 499/1/6
f 499/1/6 493/1/6 500/1/6
f 496/1/6 497/1/6 501/1/6
f 498/1/6 499/1/6 501/1/6
f 497/1/6 498/1/6 501/1/6
f 501/1/6 499/1/6 502/1/6
