# MagicaVoxel @ Ephtracy

# group
o 

# material
mtllib tree_3.mtl
usemtl palette

# normals
vn -1 0 0
vn 1 0 0
vn 0 0 1
vn 0 0 -1
vn 0 -1 0
vn 0 1 0

# texcoords
vt 0.662109 0.5
vt 0.666016 0.5
vt 0.689453 0.5
vt 0.693359 0.5

# verts
v -0.9 -0.05 0.2
v -0.9 -0.05 -0.2
v -0.9 0.15 0.2
v -0.9 0.15 -0.2
v -0.9 0.35 0.2
v -0.9 0.35 -0.2
v -0.9 0.45 0.2
v -0.9 0.45 -0.2
v -0.9 0.55 0.2
v -0.9 0.55 -0.2
v -0.8 -0.45 0.1
v -0.8 -0.45 -0.1
v -0.8 -0.35 0.1
v -0.8 -0.35 -0.1
v -0.8 -0.15 0.1
v -0.8 -0.15 -0.1
v -0.8 -0.05 0.1
v -0.8 -0.05 -0.1
v -0.5 0.05 0.7
v -0.5 0.05 0.2
v -0.5 0.05 -0.2
v -0.5 0.05 -0.7
v -0.5 0.15 0.2
v -0.5 0.15 -0.2
v -0.5 0.25 0.7
v -0.5 0.25 0.2
v -0.5 0.25 -0.2
v -0.5 0.25 -0.7
v -0.5 0.35 0.2
v -0.5 0.35 -0.2
v -0.5 0.45 0.7
v -0.5 0.45 0.2
v -0.5 0.45 -0.2
v -0.5 0.45 -0.7
v -0.5 0.55 0.7
v -0.5 0.55 0.2
v -0.5 0.55 -0.2
v -0.5 0.55 -0.7
v -0.5 0.65 0.7
v -0.5 0.65 -0.7
v -0.5 0.85 0.7
v -0.5 0.85 -0.7
v -0.5 0.95 0.7
v -0.5 0.95 -0.7
v -0.5 1.25 0.7
v -0.5 1.25 -0.7
v -0.5 1.45 0.7
v -0.5 1.45 -0.7
v -0.5 1.65 0.7
v -0.5 1.65 -0.7
v -0.5 1.75 0.7
v -0.5 1.75 -0.7
v 0 -1.75 0.2
v 0 -1.75 -0.2
v 0 -1.55 -0.1
v 0 -1.55 -0.2
v 0 -1.35 0.1
v 0 -1.35 -0.1
v 0 -1.25 0.2
v 0 -1.25 0.1
v 0 -1.25 -0.1
v 0 -1.25 -0.2
v 0 -1.15 0.2
v 0 -1.15 -0.1
v 0 -1.05 0
v 0 -1.05 -0.2
v 0 -0.95 0
v 0 -0.95 -0.2
v 0 -0.85 0.2
v 0 -0.85 -0.2
v 0 -0.65 0.2
v 0 -0.65 0
v 0 -0.55 0
v 0 -0.55 -0.2
v 0 -0.45 0.1
v 0 -0.45 -0.1
v 0 -0.35 0.2
v 0 -0.35 0.1
v 0 -0.35 -0.1
v 0 -0.35 -0.2
v 0 -0.25 0.1
v 0 -0.25 -0.1
v 0 -0.15 0.2
v 0 -0.15 0.1
v 0 -0.15 -0.1
v 0 -0.15 -0.2
v 0 0.05 0.2
v 0 0.05 -0.2
v -0.6 -0.25 0.1
v -0.6 -0.25 -0.1
v -0.6 -0.15 0.1
v -0.6 -0.15 -0.1
v -0.6 -0.05 0.1
v -0.6 -0.05 -0.1
v -0.5 -0.05 0.2
v -0.5 -0.05 -0.2
v -0.5 0.05 0.2
v -0.5 0.05 -0.2
v 0.4 -1.75 0.2
v 0.4 -1.75 -0.2
v 0.4 -1.65 0.2
v 0.4 -1.65 0.1
v 0.4 -1.55 0.1
v 0.4 -1.55 -0.2
v 0.4 -1.45 0.2
v 0.4 -1.45 -0.2
v 0.4 -1.25 0.2
v 0.4 -1.25 -0.1
v 0.4 -1.15 -0.1
v 0.4 -1.15 -0.2
v 0.4 -1.05 0.2
v 0.4 -1.05 0.1
v 0.4 -0.95 0.1
v 0.4 -0.95 -0.2
v 0.4 -0.85 0.2
v 0.4 -0.85 0.1
v 0.4 -0.75 0.1
v 0.4 -0.75 -0.2
v 0.4 -0.65 0.2
v 0.4 -0.65 -0.2
v 0.4 -0.45 -0.1
v 0.4 -0.45 -0.2
v 0.4 -0.35 0.2
v 0.4 -0.35 -0.1
v 0.4 -0.25 0
v 0.4 -0.25 -0.2
v 0.4 -0.15 0.1
v 0.4 -0.15 0
v 0.4 -0.05 0.2
v 0.4 -0.05 0.1
v 0.4 0.05 0.2
v 0.4 0.05 -0.2
v 0.9 0.05 0.7
v 0.9 0.05 -0.7
v 0.9 0.25 0.7
v 0.9 0.25 -0.7
v 0.9 0.45 0.7
v 0.9 0.45 -0.7
v 0.9 0.55 0.7
v 0.9 0.55 -0.7
v 0.9 0.65 0.7
v 0.9 0.65 -0.7
v 0.9 0.85 0.7
v 0.9 0.85 -0.7
v 0.9 0.95 0.7
v 0.9 0.95 -0.7
v 0.9 1.25 0.7
v 0.9 1.25 -0.7
v 0.9 1.45 0.7
v 0.9 1.45 -0.7
v 0.9 1.65 0.7
v 0.9 1.65 -0.7
v 0.9 1.75 0.7
v 0.9 1.75 -0.7
v -0.5 0.05 0.7
v -0.5 0.25 0.7
v -0.5 0.45 0.7
v -0.5 0.55 0.7
v -0.5 0.65 0.7
v -0.5 0.85 0.7
v -0.5 0.95 0.7
v -0.5 1.25 0.7
v -0.5 1.45 0.7
v -0.5 1.65 0.7
v -0.5 1.75 0.7
v 0.9 0.05 0.7
v 0.9 0.25 0.7
v 0.9 0.45 0.7
v 0.9 0.55 0.7
v 0.9 0.65 0.7
v 0.9 0.85 0.7
v 0.9 0.95 0.7
v 0.9 1.25 0.7
v 0.9 1.45 0.7
v 0.9 1.65 0.7
v 0.9 1.75 0.7
v -0.9 -0.05 0.2
v -0.9 0.15 0.2
v -0.9 0.35 0.2
v -0.9 0.45 0.2
v -0.9 0.55 0.2
v -0.5 -0.05 0.2
v -0.5 0.05 0.2
v -0.5 0.15 0.2
v -0.5 0.25 0.2
v -0.5 0.35 0.2
v -0.5 0.45 0.2
v -0.5 0.55 0.2
v 0 -1.75 0.2
v 0 -1.25 0.2
v 0 -1.15 0.2
v 0 -0.85 0.2
v 0 -0.65 0.2
v 0 -0.35 0.2
v 0 -0.15 0.2
v 0 0.05 0.2
v 0.1 -1.65 0.2
v 0.1 -1.55 0.2
v 0.1 -1.15 0.2
v 0.1 -1.05 0.2
v 0.2 -0.25 0.2
v 0.2 -0.15 0.2
v 0.3 -1.55 0.2
v 0.3 -1.45 0.2
v 0.3 -0.25 0.2
v 0.3 -0.05 0.2
v 0.4 -1.75 0.2
v 0.4 -1.65 0.2
v 0.4 -1.45 0.2
v 0.4 -1.25 0.2
v 0.4 -1.05 0.2
v 0.4 -0.85 0.2
v 0.4 -0.65 0.2
v 0.4 -0.35 0.2
v 0.4 -0.05 0.2
v 0.4 0.05 0.2
v -0.8 -0.45 0.1
v -0.8 -0.35 0.1
v -0.8 -0.15 0.1
v -0.8 -0.05 0.1
v -0.6 -0.25 0.1
v -0.6 -0.15 0.1
v -0.6 -0.05 0.1
v -0.5 -0.35 0.1
v -0.5 -0.25 0.1
v -0.4 -0.45 0.1
v -0.4 -0.25 0.1
v -0.2 -0.45 0.1
v -0.2 -0.25 0.1
v -0.1 -0.45 0.1
v -0.1 -0.25 0.1
v 0 -0.45 0.1
v 0 -0.35 0.1
v 0 -0.25 0.1
v -0.8 -0.45 -0.1
v -0.8 -0.35 -0.1
v -0.8 -0.15 -0.1
v -0.8 -0.05 -0.1
v -0.6 -0.45 -0.1
v -0.6 -0.35 -0.1
v -0.6 -0.25 -0.1
v -0.6 -0.15 -0.1
v -0.6 -0.05 -0.1
v -0.5 -0.35 -0.1
v -0.5 -0.25 -0.1
v -0.3 -0.35 -0.1
v -0.3 -0.25 -0.1
v -0.2 -0.45 -0.1
v -0.2 -0.35 -0.1
v -0.1 -0.45 -0.1
v -0.1 -0.35 -0.1
v 0 -0.45 -0.1
v 0 -0.35 -0.1
v 0 -0.25 -0.1
v -0.9 -0.05 -0.2
v -0.9 0.15 -0.2
v -0.9 0.35 -0.2
v -0.9 0.45 -0.2
v -0.9 0.55 -0.2
v -0.5 -0.05 -0.2
v -0.5 0.05 -0.2
v -0.5 0.15 -0.2
v -0.5 0.25 -0.2
v -0.5 0.35 -0.2
v -0.5 0.45 -0.2
v -0.5 0.55 -0.2
v 0 -1.75 -0.2
v 0 -1.55 -0.2
v 0 -1.25 -0.2
v 0 -1.05 -0.2
v 0 -0.95 -0.2
v 0 -0.85 -0.2
v 0 -0.55 -0.2
v 0 -0.35 -0.2
v 0 -0.15 -0.2
v 0 0.05 -0.2
v 0.1 -1.45 -0.2
v 0.1 -1.25 -0.2
v 0.1 -0.85 -0.2
v 0.1 -0.75 -0.2
v 0.1 -0.25 -0.2
v 0.1 -0.15 -0.2
v 0.2 -0.65 -0.2
v 0.2 -0.55 -0.2
v 0.2 -0.45 -0.2
v 0.2 -0.35 -0.2
v 0.3 -1.15 -0.2
v 0.3 -1.05 -0.2
v 0.4 -1.75 -0.2
v 0.4 -1.55 -0.2
v 0.4 -1.45 -0.2
v 0.4 -1.15 -0.2
v 0.4 -0.95 -0.2
v 0.4 -0.75 -0.2
v 0.4 -0.65 -0.2
v 0.4 -0.45 -0.2
v 0.4 -0.25 -0.2
v 0.4 0.05 -0.2
v -0.5 0.05 -0.7
v -0.5 0.25 -0.7
v -0.5 0.45 -0.7
v -0.5 0.55 -0.7
v -0.5 0.65 -0.7
v -0.5 0.85 -0.7
v -0.5 0.95 -0.7
v -0.5 1.25 -0.7
v -0.5 1.45 -0.7
v -0.5 1.65 -0.7
v -0.5 1.75 -0.7
v 0.9 0.05 -0.7
v 0.9 0.25 -0.7
v 0.9 0.45 -0.7
v 0.9 0.55 -0.7
v 0.9 0.65 -0.7
v 0.9 0.85 -0.7
v 0.9 0.95 -0.7
v 0.9 1.25 -0.7
v 0.9 1.45 -0.7
v 0.9 1.65 -0.7
v 0.9 1.75 -0.7
v 0 -1.75 0.2
v 0.4 -1.75 0.2
v 0 -1.75 -0.2
v 0.4 -1.75 -0.2
v -0.8 -0.45 0.1
v -0.4 -0.45 0.1
v -0.2 -0.45 0.1
v -0.1 -0.45 0.1
v 0 -0.45 0.1
v -0.6 -0.45 0
v -0.4 -0.45 0
v -0.8 -0.45 -0.1
v -0.6 -0.45 -0.1
v -0.2 -0.45 -0.1
v -0.1 -0.45 -0.1
v 0 -0.45 -0.1
v -0.9 -0.05 0.2
v -0.5 -0.05 0.2
v -0.8 -0.05 0.1
v -0.6 -0.05 0.1
v -0.8 -0.05 -0.1
v -0.6 -0.05 -0.1
v -0.9 -0.05 -0.2
v -0.5 -0.05 -0.2
v -0.5 0.05 0.7
v 0.9 0.05 0.7
v -0.5 0.05 0.2
v 0 0.05 0.2
v 0.4 0.05 0.2
v -0.5 0.05 -0.2
v 0 0.05 -0.2
v 0.4 0.05 -0.2
v -0.5 0.05 -0.7
v 0.9 0.05 -0.7
v -0.6 -0.25 0.1
v -0.5 -0.25 0.1
v -0.4 -0.25 0.1
v -0.2 -0.25 0.1
v -0.1 -0.25 0.1
v 0 -0.25 0.1
v -0.4 -0.25 0
v -0.3 -0.25 0
v -0.2 -0.25 0
v -0.1 -0.25 0
v -0.6 -0.25 -0.1
v -0.5 -0.25 -0.1
v -0.3 -0.25 -0.1
v 0 -0.25 -0.1
v -0.9 0.55 0.2
v -0.5 0.55 0.2
v -0.9 0.55 -0.2
v -0.5 0.55 -0.2
v -0.5 1.75 0.7
v 0.9 1.75 0.7
v -0.5 1.75 -0.7
v 0.9 1.75 -0.7

# faces
f 3/4/1 2/4/1 1/4/1
f 4/4/1 2/4/1 3/4/1
f 5/3/1 4/3/1 3/3/1
f 6/3/1 4/3/1 5/3/1
f 7/4/1 6/4/1 5/4/1
f 8/4/1 6/4/1 7/4/1
f 9/3/1 8/3/1 7/3/1
f 10/3/1 8/3/1 9/3/1
f 13/2/1 12/2/1 11/2/1
f 14/2/1 12/2/1 13/2/1
f 15/1/1 14/1/1 13/1/1
f 16/1/1 14/1/1 15/1/1
f 17/2/1 16/2/1 15/2/1
f 18/2/1 16/2/1 17/2/1
f 23/4/1 20/4/1 19/4/1
f 24/4/1 22/4/1 21/4/1
f 25/4/1 23/4/1 19/4/1
f 26/4/1 23/4/1 25/4/1
f 27/4/1 22/4/1 24/4/1
f 28/4/1 22/4/1 27/4/1
f 29/3/1 26/3/1 25/3/1
f 30/3/1 28/3/1 27/3/1
f 31/3/1 29/3/1 25/3/1
f 32/3/1 29/3/1 31/3/1
f 33/3/1 28/3/1 30/3/1
f 34/3/1 28/3/1 33/3/1
f 35/4/1 32/4/1 31/4/1
f 36/4/1 32/4/1 35/4/1
f 37/4/1 34/4/1 33/4/1
f 38/4/1 34/4/1 37/4/1
f 39/3/1 36/3/1 35/3/1
f 39/3/1 37/3/1 36/3/1
f 39/3/1 38/3/1 37/3/1
f 40/3/1 38/3/1 39/3/1
f 41/4/1 40/4/1 39/4/1
f 42/4/1 40/4/1 41/4/1
f 43/3/1 42/3/1 41/3/1
f 44/3/1 42/3/1 43/3/1
f 45/4/1 44/4/1 43/4/1
f 46/4/1 44/4/1 45/4/1
f 47/3/1 46/3/1 45/3/1
f 48/3/1 46/3/1 47/3/1
f 49/4/1 48/4/1 47/4/1
f 50/4/1 48/4/1 49/4/1
f 51/3/1 50/3/1 49/3/1
f 52/3/1 50/3/1 51/3/1
f 55/1/1 54/1/1 53/1/1
f 56/1/1 54/1/1 55/1/1
f 57/1/1 55/1/1 53/1/1
f 58/2/1 56/2/1 55/2/1
f 58/1/1 55/1/1 57/1/1
f 59/1/1 57/1/1 53/1/1
f 60/2/1 58/2/1 57/2/1
f 60/1/1 57/1/1 59/1/1
f 61/2/1 56/2/1 58/2/1
f 61/2/1 58/2/1 60/2/1
f 62/2/1 56/2/1 61/2/1
f 63/2/1 60/2/1 59/2/1
f 63/2/1 61/2/1 60/2/1
f 64/1/1 62/1/1 61/1/1
f 64/2/1 61/2/1 63/2/1
f 65/1/1 64/1/1 63/1/1
f 66/1/1 62/1/1 64/1/1
f 66/1/1 64/1/1 65/1/1
f 67/1/1 65/1/1 63/1/1
f 67/2/1 66/2/1 65/2/1
f 68/2/1 66/2/1 67/2/1
f 69/1/1 67/1/1 63/1/1
f 69/1/1 68/1/1 67/1/1
f 70/1/1 68/1/1 69/1/1
f 71/2/1 70/2/1 69/2/1
f 72/2/1 70/2/1 71/2/1
f 73/1/1 72/1/1 71/1/1
f 73/2/1 70/2/1 72/2/1
f 74/2/1 70/2/1 73/2/1
f 75/1/1 73/1/1 71/1/1
f 75/1/1 74/1/1 73/1/1
f 76/1/1 74/1/1 75/1/1
f 77/1/1 75/1/1 71/1/1
f 78/1/1 75/1/1 77/1/1
f 79/1/1 74/1/1 76/1/1
f 80/1/1 74/1/1 79/1/1
f 81/2/1 78/2/1 77/2/1
f 82/2/1 80/2/1 79/2/1
f 83/2/1 81/2/1 77/2/1
f 84/1/1 82/1/1 81/1/1
f 84/2/1 81/2/1 83/2/1
f 85/2/1 80/2/1 82/2/1
f 85/1/1 82/1/1 84/1/1
f 86/2/1 80/2/1 85/2/1
f 87/1/1 84/1/1 83/1/1
f 87/1/1 85/1/1 84/1/1
f 87/1/1 86/1/1 85/1/1
f 88/1/1 86/1/1 87/1/1
f 89/1/2 90/1/2 91/1/2
f 91/1/2 90/1/2 92/1/2
f 91/2/2 92/2/2 93/2/2
f 93/2/2 92/2/2 94/2/2
f 95/4/2 96/4/2 97/4/2
f 97/4/2 96/4/2 98/4/2
f 99/1/2 100/1/2 101/1/2
f 101/1/2 100/1/2 102/1/2
f 101/2/2 102/2/2 103/2/2
f 102/1/2 100/1/2 103/1/2
f 103/1/2 100/1/2 104/1/2
f 101/2/2 103/2/2 105/2/2
f 103/2/2 104/2/2 105/2/2
f 105/2/2 104/2/2 106/2/2
f 105/1/2 106/1/2 107/1/2
f 107/1/2 106/1/2 108/1/2
f 107/2/2 108/2/2 109/2/2
f 108/1/2 106/1/2 109/1/2
f 109/1/2 106/1/2 110/1/2
f 107/2/2 109/2/2 111/2/2
f 109/2/2 110/2/2 111/2/2
f 111/2/2 110/2/2 112/2/2
f 111/1/2 112/1/2 113/1/2
f 112/2/2 110/2/2 113/2/2
f 113/2/2 110/2/2 114/2/2
f 111/1/2 113/1/2 115/1/2
f 113/1/2 114/1/2 115/1/2
f 115/1/2 114/1/2 116/1/2
f 115/2/2 116/2/2 117/2/2
f 116/1/2 114/1/2 117/1/2
f 117/1/2 114/1/2 118/1/2
f 115/2/2 117/2/2 119/2/2
f 117/2/2 118/2/2 119/2/2
f 119/2/2 118/2/2 120/2/2
f 119/1/2 120/1/2 121/1/2
f 121/1/2 120/1/2 122/1/2
f 119/1/2 121/1/2 123/1/2
f 121/2/2 122/2/2 124/2/2
f 123/1/2 121/1/2 124/1/2
f 123/2/2 124/2/2 125/2/2
f 124/2/2 122/2/2 126/2/2
f 125/2/2 124/2/2 126/2/2
f 123/2/2 125/2/2 127/2/2
f 125/1/2 126/1/2 128/1/2
f 127/2/2 125/2/2 128/2/2
f 123/2/2 127/2/2 129/2/2
f 127/1/2 128/1/2 130/1/2
f 129/2/2 127/2/2 130/2/2
f 129/1/2 130/1/2 131/1/2
f 128/1/2 126/1/2 132/1/2
f 131/1/2 130/1/2 132/1/2
f 130/1/2 128/1/2 132/1/2
f 133/4/2 134/4/2 135/4/2
f 135/4/2 134/4/2 136/4/2
f 135/3/2 136/3/2 137/3/2
f 137/3/2 136/3/2 138/3/2
f 137/4/2 138/4/2 139/4/2
f 139/4/2 138/4/2 140/4/2
f 139/3/2 140/3/2 141/3/2
f 141/3/2 140/3/2 142/3/2
f 141/4/2 142/4/2 143/4/2
f 143/4/2 142/4/2 144/4/2
f 143/3/2 144/3/2 145/3/2
f 145/3/2 144/3/2 146/3/2
f 145/4/2 146/4/2 147/4/2
f 147/4/2 146/4/2 148/4/2
f 147/3/2 148/3/2 149/3/2
f 149/3/2 148/3/2 150/3/2
f 149/4/2 150/4/2 151/4/2
f 151/4/2 150/4/2 152/4/2
f 151/3/2 152/3/2 153/3/2
f 153/3/2 152/3/2 154/3/2
f 166/4/3 156/4/3 155/4/3
f 167/3/3 157/3/3 156/3/3
f 167/4/3 156/4/3 166/4/3
f 168/4/3 158/4/3 157/4/3
f 168/3/3 157/3/3 167/3/3
f 169/3/3 159/3/3 158/3/3
f 169/4/3 158/4/3 168/4/3
f 170/4/3 160/4/3 159/4/3
f 170/3/3 159/3/3 169/3/3
f 171/3/3 161/3/3 160/3/3
f 171/4/3 160/4/3 170/4/3
f 172/4/3 162/4/3 161/4/3
f 172/3/3 161/3/3 171/3/3
f 173/3/3 163/3/3 162/3/3
f 173/4/3 162/4/3 172/4/3
f 174/4/3 164/4/3 163/4/3
f 174/3/3 163/3/3 173/3/3
f 175/3/3 165/3/3 164/3/3
f 175/4/3 164/4/3 174/4/3
f 176/3/3 165/3/3 175/3/3
f 182/4/3 178/4/3 177/4/3
f 183/4/3 178/4/3 182/4/3
f 184/3/3 179/3/3 178/3/3
f 184/4/3 178/4/3 183/4/3
f 185/3/3 179/3/3 184/3/3
f 186/4/3 180/4/3 179/4/3
f 186/3/3 179/3/3 185/3/3
f 187/3/3 181/3/3 180/3/3
f 187/4/3 180/4/3 186/4/3
f 188/3/3 181/3/3 187/3/3
f 197/1/3 190/1/3 189/1/3
f 198/1/3 190/1/3 197/1/3
f 199/2/3 191/2/3 190/2/3
f 199/1/3 192/1/3 191/1/3
f 200/1/3 192/1/3 199/1/3
f 201/2/3 195/2/3 194/2/3
f 202/1/3 196/1/3 195/1/3
f 202/2/3 195/2/3 201/2/3
f 203/1/3 190/1/3 198/1/3
f 203/2/3 198/2/3 197/2/3
f 204/1/3 190/1/3 203/1/3
f 205/2/3 201/2/3 194/2/3
f 205/1/3 202/1/3 201/1/3
f 206/1/3 196/1/3 202/1/3
f 206/1/3 202/1/3 205/1/3
f 207/1/3 197/1/3 189/1/3
f 208/2/3 204/2/3 203/2/3
f 208/1/3 197/1/3 207/1/3
f 208/2/3 203/2/3 197/2/3
f 209/1/3 190/1/3 204/1/3
f 209/2/3 204/2/3 208/2/3
f 210/2/3 199/2/3 190/2/3
f 210/1/3 190/1/3 209/1/3
f 210/2/3 200/2/3 199/2/3
f 211/1/3 192/1/3 200/1/3
f 211/2/3 200/2/3 210/2/3
f 212/2/3 193/2/3 192/2/3
f 212/1/3 192/1/3 211/1/3
f 213/1/3 194/1/3 193/1/3
f 213/2/3 193/2/3 212/2/3
f 214/2/3 205/2/3 194/2/3
f 214/1/3 194/1/3 213/1/3
f 214/2/3 206/2/3 205/2/3
f 215/1/3 196/1/3 206/1/3
f 215/2/3 206/2/3 214/2/3
f 216/1/3 196/1/3 215/1/3
f 221/1/3 219/1/3 218/1/3
f 222/2/3 220/2/3 219/2/3
f 222/1/3 219/1/3 221/1/3
f 223/2/3 220/2/3 222/2/3
f 224/2/3 218/2/3 217/2/3
f 224/1/3 221/1/3 218/1/3
f 225/1/3 221/1/3 224/1/3
f 226/2/3 224/2/3 217/2/3
f 226/2/3 225/2/3 224/2/3
f 227/2/3 225/2/3 226/2/3
f 228/1/3 227/1/3 226/1/3
f 229/1/3 227/1/3 228/1/3
f 230/2/3 229/2/3 228/2/3
f 231/2/3 229/2/3 230/2/3
f 232/1/3 231/1/3 230/1/3
f 233/1/3 231/1/3 232/1/3
f 234/1/3 231/1/3 233/1/3
f 235/2/4 236/2/4 239/2/4
f 236/1/4 237/1/4 240/1/4
f 239/2/4 236/2/4 240/2/4
f 240/1/4 237/1/4 241/1/4
f 237/2/4 238/2/4 242/2/4
f 241/1/4 237/1/4 242/1/4
f 242/2/4 238/2/4 243/2/4
f 240/1/4 241/1/4 244/1/4
f 239/1/4 240/1/4 244/1/4
f 244/1/4 241/1/4 245/1/4
f 239/1/4 244/1/4 246/1/4
f 244/2/4 245/2/4 246/2/4
f 246/2/4 245/2/4 247/2/4
f 239/1/4 246/1/4 248/1/4
f 246/1/4 247/1/4 248/1/4
f 248/1/4 247/1/4 249/1/4
f 248/2/4 249/2/4 250/2/4
f 249/1/4 247/1/4 251/1/4
f 250/2/4 249/2/4 251/2/4
f 250/1/4 251/1/4 252/1/4
f 251/1/4 247/1/4 253/1/4
f 252/1/4 251/1/4 253/1/4
f 253/1/4 247/1/4 254/1/4
f 255/4/4 256/4/4 260/4/4
f 260/4/4 256/4/4 261/4/4
f 256/3/4 257/3/4 262/3/4
f 261/4/4 256/4/4 262/4/4
f 262/3/4 257/3/4 263/3/4
f 257/4/4 258/4/4 264/4/4
f 263/3/4 257/3/4 264/3/4
f 258/3/4 259/3/4 265/3/4
f 264/4/4 258/4/4 265/4/4
f 265/3/4 259/3/4 266/3/4
f 268/2/4 269/2/4 277/2/4
f 269/1/4 270/1/4 278/1/4
f 277/2/4 269/2/4 278/2/4
f 271/1/4 272/1/4 279/1/4
f 272/2/4 273/2/4 279/2/4
f 279/2/4 273/2/4 280/2/4
f 274/2/4 275/2/4 281/2/4
f 275/1/4 276/1/4 282/1/4
f 281/2/4 275/2/4 282/2/4
f 280/2/4 273/2/4 283/2/4
f 273/1/4 274/1/4 284/1/4
f 283/2/4 273/2/4 284/2/4
f 284/1/4 274/1/4 285/1/4
f 274/2/4 281/2/4 286/2/4
f 285/1/4 274/1/4 286/1/4
f 278/1/4 270/1/4 287/1/4
f 277/1/4 278/1/4 287/1/4
f 270/2/4 271/2/4 288/2/4
f 287/1/4 270/1/4 288/1/4
f 267/1/4 268/1/4 289/1/4
f 268/2/4 277/2/4 290/2/4
f 289/1/4 268/1/4 290/1/4
f 277/1/4 287/1/4 291/1/4
f 290/2/4 277/2/4 291/2/4
f 287/2/4 288/2/4 292/2/4
f 291/1/4 287/1/4 292/1/4
f 288/2/4 271/2/4 293/2/4
f 292/2/4 288/2/4 293/2/4
f 271/1/4 279/1/4 293/1/4
f 279/1/4 280/1/4 293/1/4
f 280/2/4 283/2/4 294/2/4
f 293/1/4 280/1/4 294/1/4
f 284/1/4 285/1/4 295/1/4
f 294/2/4 283/2/4 295/2/4
f 283/1/4 284/1/4 295/1/4
f 285/2/4 286/2/4 296/2/4
f 295/1/4 285/1/4 296/1/4
f 286/2/4 281/2/4 297/2/4
f 296/2/4 286/2/4 297/2/4
f 281/1/4 282/1/4 297/1/4
f 282/1/4 276/1/4 298/1/4
f 297/1/4 282/1/4 298/1/4
f 299/4/4 300/4/4 310/4/4
f 300/3/4 301/3/4 311/3/4
f 310/4/4 300/4/4 311/4/4
f 301/4/4 302/4/4 312/4/4
f 311/3/4 301/3/4 312/3/4
f 302/3/4 303/3/4 313/3/4
f 312/4/4 302/4/4 313/4/4
f 303/4/4 304/4/4 314/4/4
f 313/3/4 303/3/4 314/3/4
f 304/3/4 305/3/4 315/3/4
f 314/4/4 304/4/4 315/4/4
f 305/4/4 306/4/4 316/4/4
f 315/3/4 305/3/4 316/3/4
f 306/3/4 307/3/4 317/3/4
f 316/4/4 306/4/4 317/4/4
f 307/4/4 308/4/4 318/4/4
f 317/3/4 307/3/4 318/3/4
f 308/3/4 309/3/4 319/3/4
f 318/4/4 308/4/4 319/4/4
f 319/3/4 309/3/4 320/3/4
f 323/1/5 322/1/5 321/1/5
f 324/1/5 322/1/5 323/1/5
f 330/2/5 326/2/5 325/2/5
f 331/1/5 327/1/5 326/1/5
f 331/2/5 326/2/5 330/2/5
f 332/2/5 330/2/5 325/2/5
f 333/1/5 331/1/5 330/1/5
f 333/2/5 330/2/5 332/2/5
f 334/1/5 327/1/5 331/1/5
f 334/1/5 331/1/5 333/1/5
f 334/2/5 328/2/5 327/2/5
f 335/1/5 329/1/5 328/1/5
f 335/2/5 328/2/5 334/2/5
f 336/1/5 329/1/5 335/1/5
f 339/4/5 338/4/5 337/4/5
f 340/4/5 338/4/5 339/4/5
f 341/4/5 339/4/5 337/4/5
f 342/4/5 338/4/5 340/4/5
f 343/4/5 341/4/5 337/4/5
f 343/4/5 342/4/5 341/4/5
f 344/4/5 338/4/5 342/4/5
f 344/4/5 342/4/5 343/4/5
f 347/4/5 346/4/5 345/4/5
f 348/4/5 346/4/5 347/4/5
f 349/4/5 346/4/5 348/4/5
f 350/4/5 348/4/5 347/4/5
f 351/4/5 348/4/5 350/4/5
f 352/4/5 346/4/5 349/4/5
f 353/4/5 351/4/5 350/4/5
f 353/4/5 352/4/5 351/4/5
f 354/4/5 346/4/5 352/4/5
f 354/4/5 352/4/5 353/4/5
f 356/2/6 357/2/6 361/2/6
f 357/1/6 358/1/6 361/1/6
f 361/1/6 358/1/6 362/1/6
f 358/2/6 359/2/6 363/2/6
f 362/1/6 358/1/6 363/1/6
f 359/1/6 360/1/6 364/1/6
f 363/2/6 359/2/6 364/2/6
f 355/1/6 356/1/6 365/1/6
f 361/2/6 362/2/6 366/2/6
f 365/1/6 356/1/6 366/1/6
f 356/2/6 361/2/6 366/2/6
f 362/1/6 363/1/6 367/1/6
f 366/2/6 362/2/6 367/2/6
f 363/1/6 364/1/6 367/1/6
f 364/1/6 360/1/6 368/1/6
f 367/1/6 364/1/6 368/1/6
f 369/3/6 370/3/6 371/3/6
f 371/3/6 370/3/6 372/3/6
f 373/3/6 374/3/6 375/3/6
f 375/3/6 374/3/6 376/3/6
