# MagicaVoxel @ Ephtracy

# group
o 

# material
mtllib tree_1.mtl
usemtl palette

# normals
vn -1 0 0
vn 1 0 0
vn 0 0 1
vn 0 0 -1
vn 0 -1 0
vn 0 1 0

# texcoords
vt 0.662109 0.5
vt 0.666016 0.5
vt 0.689453 0.5
vt 0.693359 0.5

# verts
v -0.7 0.05 0.7
v -0.7 0.05 -0.7
v -0.7 0.25 0.7
v -0.7 0.25 -0.7
v -0.7 0.45 0.7
v -0.7 0.45 -0.7
v -0.7 0.55 0.7
v -0.7 0.55 -0.7
v -0.7 0.65 0.7
v -0.7 0.65 -0.7
v -0.7 0.85 0.7
v -0.7 0.85 -0.7
v -0.7 0.95 0.7
v -0.7 0.95 -0.7
v -0.7 1.25 0.7
v -0.7 1.25 -0.7
v -0.7 1.45 0.7
v -0.7 1.45 -0.7
v -0.7 1.65 0.7
v -0.7 1.65 -0.7
v -0.7 1.75 0.7
v -0.7 1.75 -0.7
v -0.2 -1.75 0.2
v -0.2 -1.75 -0.2
v -0.2 -1.65 0
v -0.2 -1.65 -0.2
v -0.2 -1.55 0.2
v -0.2 -1.55 0
v -0.2 -1.55 -0.1
v -0.2 -1.45 0.2
v -0.2 -1.45 0
v -0.2 -1.35 0.2
v -0.2 -1.35 -0.1
v -0.2 -1.25 -0.1
v -0.2 -1.25 -0.2
v -0.2 -1.15 0.2
v -0.2 -1.15 -0.1
v -0.2 -0.75 0.2
v -0.2 -0.75 -0.1
v -0.2 -0.65 0.1
v -0.2 -0.65 0
v -0.2 -0.65 -0.1
v -0.2 -0.65 -0.2
v -0.2 -0.55 0.2
v -0.2 -0.55 0.1
v -0.2 -0.55 0
v -0.2 -0.55 -0.2
v -0.2 -0.35 0.2
v -0.2 -0.35 -0.2
v -0.2 -0.25 0.1
v -0.2 -0.25 -0.1
v -0.2 -0.15 0.2
v -0.2 -0.15 0.1
v -0.2 -0.15 -0.1
v -0.2 -0.15 -0.2
v -0.2 0.05 0.2
v -0.2 0.05 -0.2
v 0.2 -1.75 0.2
v 0.2 -1.75 -0.2
v 0.2 -1.65 0.2
v 0.2 -1.65 0.1
v 0.2 -1.55 0.1
v 0.2 -1.55 -0.2
v 0.2 -1.45 0.2
v 0.2 -1.45 -0.2
v 0.2 -1.35 0
v 0.2 -1.35 -0.2
v 0.2 -1.25 0.2
v 0.2 -1.25 0
v 0.2 -1.25 -0.1
v 0.2 -1.25 -0.2
v 0.2 -1.15 0
v 0.2 -1.15 -0.1
v 0.2 -1.05 0.2
v 0.2 -1.05 0
v 0.2 -0.75 0.2
v 0.2 -0.75 -0.2
v 0.2 -0.65 0.2
v 0.2 -0.65 -0.2
v 0.2 -0.45 -0.1
v 0.2 -0.45 -0.2
v 0.2 -0.35 0.2
v 0.2 -0.35 -0.1
v 0.2 -0.25 0
v 0.2 -0.25 -0.2
v 0.2 -0.15 0.1
v 0.2 -0.15 0
v 0.2 -0.05 0.2
v 0.2 -0.05 0.1
v 0.2 0.05 0.2
v 0.2 0.05 -0.2
v 0.7 0.05 0.7
v 0.7 0.05 -0.7
v 0.7 0.25 0.7
v 0.7 0.25 -0.7
v 0.7 0.45 0.7
v 0.7 0.45 -0.7
v 0.7 0.55 0.7
v 0.7 0.55 -0.7
v 0.7 0.65 0.7
v 0.7 0.65 -0.7
v 0.7 0.85 0.7
v 0.7 0.85 -0.7
v 0.7 0.95 0.7
v 0.7 0.95 -0.7
v 0.7 1.25 0.7
v 0.7 1.25 -0.7
v 0.7 1.45 0.7
v 0.7 1.45 -0.7
v 0.7 1.65 0.7
v 0.7 1.65 -0.7
v 0.7 1.75 0.7
v 0.7 1.75 -0.7
v -0.7 0.05 0.7
v -0.7 0.25 0.7
v -0.7 0.45 0.7
v -0.7 0.55 0.7
v -0.7 0.65 0.7
v -0.7 0.85 0.7
v -0.7 0.95 0.7
v -0.7 1.25 0.7
v -0.7 1.45 0.7
v -0.7 1.65 0.7
v -0.7 1.75 0.7
v 0.7 0.05 0.7
v 0.7 0.25 0.7
v 0.7 0.45 0.7
v 0.7 0.55 0.7
v 0.7 0.65 0.7
v 0.7 0.85 0.7
v 0.7 0.95 0.7
v 0.7 1.25 0.7
v 0.7 1.45 0.7
v 0.7 1.65 0.7
v 0.7 1.75 0.7
v -0.2 -1.75 0.2
v -0.2 -1.55 0.2
v -0.2 -1.45 0.2
v -0.2 -1.35 0.2
v -0.2 -1.15 0.2
v -0.2 -0.75 0.2
v -0.2 -0.55 0.2
v -0.2 -0.35 0.2
v -0.2 -0.15 0.2
v -0.2 0.05 0.2
v -0.1 -1.65 0.2
v -0.1 -1.55 0.2
v -0.1 -1.45 0.2
v -0.1 -1.35 0.2
v -0.1 -1.25 0.2
v 0 -0.25 0.2
v 0 -0.15 0.2
v 0.1 -1.55 0.2
v 0.1 -1.45 0.2
v 0.1 -1.15 0.2
v 0.1 -1.05 0.2
v 0.1 -0.65 0.2
v 0.1 -0.55 0.2
v 0.1 -0.25 0.2
v 0.1 -0.05 0.2
v 0.2 -1.75 0.2
v 0.2 -1.65 0.2
v 0.2 -1.45 0.2
v 0.2 -1.25 0.2
v 0.2 -1.05 0.2
v 0.2 -0.75 0.2
v 0.2 -0.65 0.2
v 0.2 -0.35 0.2
v 0.2 -0.05 0.2
v 0.2 0.05 0.2
v -0.2 -1.75 -0.2
v -0.2 -1.65 -0.2
v -0.2 -1.25 -0.2
v -0.2 -0.65 -0.2
v -0.2 -0.55 -0.2
v -0.2 -0.35 -0.2
v -0.2 -0.15 -0.2
v -0.2 0.05 -0.2
v -0.1 -1.65 -0.2
v -0.1 -1.55 -0.2
v -0.1 -1.45 -0.2
v -0.1 -1.35 -0.2
v -0.1 -0.75 -0.2
v -0.1 -0.65 -0.2
v -0.1 -0.25 -0.2
v -0.1 -0.15 -0.2
v 0 -0.65 -0.2
v 0 -0.55 -0.2
v 0 -0.45 -0.2
v 0 -0.35 -0.2
v 0.2 -1.75 -0.2
v 0.2 -1.55 -0.2
v 0.2 -1.45 -0.2
v 0.2 -1.35 -0.2
v 0.2 -1.25 -0.2
v 0.2 -0.75 -0.2
v 0.2 -0.65 -0.2
v 0.2 -0.45 -0.2
v 0.2 -0.25 -0.2
v 0.2 0.05 -0.2
v -0.7 0.05 -0.7
v -0.7 0.25 -0.7
v -0.7 0.45 -0.7
v -0.7 0.55 -0.7
v -0.7 0.65 -0.7
v -0.7 0.85 -0.7
v -0.7 0.95 -0.7
v -0.7 1.25 -0.7
v -0.7 1.45 -0.7
v -0.7 1.65 -0.7
v -0.7 1.75 -0.7
v 0.7 0.05 -0.7
v 0.7 0.25 -0.7
v 0.7 0.45 -0.7
v 0.7 0.55 -0.7
v 0.7 0.65 -0.7
v 0.7 0.85 -0.7
v 0.7 0.95 -0.7
v 0.7 1.25 -0.7
v 0.7 1.45 -0.7
v 0.7 1.65 -0.7
v 0.7 1.75 -0.7
v -0.2 -1.75 0.2
v 0.2 -1.75 0.2
v -0.2 -1.75 -0.2
v 0.2 -1.75 -0.2
v -0.7 0.05 0.7
v 0.7 0.05 0.7
v -0.2 0.05 0.2
v 0.2 0.05 0.2
v -0.2 0.05 -0.2
v 0.2 0.05 -0.2
v -0.7 0.05 -0.7
v 0.7 0.05 -0.7
v -0.7 1.75 0.7
v 0.7 1.75 0.7
v -0.7 1.75 -0.7
v 0.7 1.75 -0.7

# faces
f 3/4/1 2/4/1 1/4/1
f 4/4/1 2/4/1 3/4/1
f 5/3/1 4/3/1 3/3/1
f 6/3/1 4/3/1 5/3/1
f 7/4/1 6/4/1 5/4/1
f 8/4/1 6/4/1 7/4/1
f 9/3/1 8/3/1 7/3/1
f 10/3/1 8/3/1 9/3/1
f 11/4/1 10/4/1 9/4/1
f 12/4/1 10/4/1 11/4/1
f 13/3/1 12/3/1 11/3/1
f 14/3/1 12/3/1 13/3/1
f 15/4/1 14/4/1 13/4/1
f 16/4/1 14/4/1 15/4/1
f 17/3/1 16/3/1 15/3/1
f 18/3/1 16/3/1 17/3/1
f 19/4/1 18/4/1 17/4/1
f 20/4/1 18/4/1 19/4/1
f 21/3/1 20/3/1 19/3/1
f 22/3/1 20/3/1 21/3/1
f 25/1/1 24/1/1 23/1/1
f 26/1/1 24/1/1 25/1/1
f 27/1/1 25/1/1 23/1/1
f 28/2/1 26/2/1 25/2/1
f 28/1/1 25/1/1 27/1/1
f 29/2/1 26/2/1 28/2/1
f 30/2/1 28/2/1 27/2/1
f 31/1/1 29/1/1 28/1/1
f 31/2/1 28/2/1 30/2/1
f 32/1/1 31/1/1 30/1/1
f 33/2/1 26/2/1 29/2/1
f 33/1/1 31/1/1 32/1/1
f 33/1/1 29/1/1 31/1/1
f 34/2/1 33/2/1 32/2/1
f 34/2/1 26/2/1 33/2/1
f 35/2/1 26/2/1 34/2/1
f 36/2/1 34/2/1 32/2/1
f 37/1/1 35/1/1 34/1/1
f 37/2/1 34/2/1 36/2/1
f 38/1/1 37/1/1 36/1/1
f 39/1/1 35/1/1 37/1/1
f 39/1/1 37/1/1 38/1/1
f 40/2/1 39/2/1 38/2/1
f 41/2/1 39/2/1 40/2/1
f 42/1/1 35/1/1 39/1/1
f 42/2/1 39/2/1 41/2/1
f 43/1/1 35/1/1 42/1/1
f 44/2/1 40/2/1 38/2/1
f 45/1/1 41/1/1 40/1/1
f 45/2/1 40/2/1 44/2/1
f 46/2/1 42/2/1 41/2/1
f 46/1/1 41/1/1 45/1/1
f 46/2/1 43/2/1 42/2/1
f 47/2/1 43/2/1 46/2/1
f 48/1/1 45/1/1 44/1/1
f 48/1/1 46/1/1 45/1/1
f 48/1/1 47/1/1 46/1/1
f 49/1/1 47/1/1 48/1/1
f 50/2/1 49/2/1 48/2/1
f 51/2/1 49/2/1 50/2/1
f 52/2/1 50/2/1 48/2/1
f 53/1/1 51/1/1 50/1/1
f 53/2/1 50/2/1 52/2/1
f 54/2/1 49/2/1 51/2/1
f 54/1/1 51/1/1 53/1/1
f 55/2/1 49/2/1 54/2/1
f 56/1/1 53/1/1 52/1/1
f 56/1/1 54/1/1 53/1/1
f 56/1/1 55/1/1 54/1/1
f 57/1/1 55/1/1 56/1/1
f 58/1/2 59/1/2 60/1/2
f 60/1/2 59/1/2 61/1/2
f 60/2/2 61/2/2 62/2/2
f 61/1/2 59/1/2 62/1/2
f 62/1/2 59/1/2 63/1/2
f 60/2/2 62/2/2 64/2/2
f 62/2/2 63/2/2 64/2/2
f 64/2/2 63/2/2 65/2/2
f 64/1/2 65/1/2 66/1/2
f 66/1/2 65/1/2 67/1/2
f 64/1/2 66/1/2 68/1/2
f 66/2/2 67/2/2 69/2/2
f 68/1/2 66/1/2 69/1/2
f 69/2/2 67/2/2 70/2/2
f 70/2/2 67/2/2 71/2/2
f 68/2/2 69/2/2 72/2/2
f 69/2/2 70/2/2 72/2/2
f 70/1/2 71/1/2 73/1/2
f 72/2/2 70/2/2 73/2/2
f 68/2/2 72/2/2 74/2/2
f 72/1/2 73/1/2 75/1/2
f 74/2/2 72/2/2 75/2/2
f 74/1/2 75/1/2 76/1/2
f 73/1/2 71/1/2 77/1/2
f 76/1/2 75/1/2 77/1/2
f 75/1/2 73/1/2 77/1/2
f 76/2/2 77/2/2 78/2/2
f 78/2/2 77/2/2 79/2/2
f 78/1/2 79/1/2 80/1/2
f 80/1/2 79/1/2 81/1/2
f 78/1/2 80/1/2 82/1/2
f 80/2/2 81/2/2 83/2/2
f 82/1/2 80/1/2 83/1/2
f 82/2/2 83/2/2 84/2/2
f 83/2/2 81/2/2 85/2/2
f 84/2/2 83/2/2 85/2/2
f 82/2/2 84/2/2 86/2/2
f 84/1/2 85/1/2 87/1/2
f 86/2/2 84/2/2 87/2/2
f 82/2/2 86/2/2 88/2/2
f 86/1/2 87/1/2 89/1/2
f 88/2/2 86/2/2 89/2/2
f 88/1/2 89/1/2 90/1/2
f 87/1/2 85/1/2 91/1/2
f 90/1/2 89/1/2 91/1/2
f 89/1/2 87/1/2 91/1/2
f 92/4/2 93/4/2 94/4/2
f 94/4/2 93/4/2 95/4/2
f 94/3/2 95/3/2 96/3/2
f 96/3/2 95/3/2 97/3/2
f 96/4/2 97/4/2 98/4/2
f 98/4/2 97/4/2 99/4/2
f 98/3/2 99/3/2 100/3/2
f 100/3/2 99/3/2 101/3/2
f 100/4/2 101/4/2 102/4/2
f 102/4/2 101/4/2 103/4/2
f 102/3/2 103/3/2 104/3/2
f 104/3/2 103/3/2 105/3/2
f 104/4/2 105/4/2 106/4/2
f 106/4/2 105/4/2 107/4/2
f 106/3/2 107/3/2 108/3/2
f 108/3/2 107/3/2 109/3/2
f 108/4/2 109/4/2 110/4/2
f 110/4/2 109/4/2 111/4/2
f 110/3/2 111/3/2 112/3/2
f 112/3/2 111/3/2 113/3/2
f 125/4/3 115/4/3 114/4/3
f 126/3/3 116/3/3 115/3/3
f 126/4/3 115/4/3 125/4/3
f 127/4/3 117/4/3 116/4/3
f 127/3/3 116/3/3 126/3/3
f 128/3/3 118/3/3 117/3/3
f 128/4/3 117/4/3 127/4/3
f 129/4/3 119/4/3 118/4/3
f 129/3/3 118/3/3 128/3/3
f 130/3/3 120/3/3 119/3/3
f 130/4/3 119/4/3 129/4/3
f 131/4/3 121/4/3 120/4/3
f 131/3/3 120/3/3 130/3/3
f 132/3/3 122/3/3 121/3/3
f 132/4/3 121/4/3 131/4/3
f 133/4/3 123/4/3 122/4/3
f 133/3/3 122/3/3 132/3/3
f 134/3/3 124/3/3 123/3/3
f 134/4/3 123/4/3 133/4/3
f 135/3/3 124/3/3 134/3/3
f 146/1/3 137/1/3 136/1/3
f 147/2/3 138/2/3 137/2/3
f 147/1/3 137/1/3 146/1/3
f 148/1/3 139/1/3 138/1/3
f 148/2/3 138/2/3 147/2/3
f 149/2/3 140/2/3 139/2/3
f 149/1/3 139/1/3 148/1/3
f 150/2/3 140/2/3 149/2/3
f 151/2/3 144/2/3 143/2/3
f 152/1/3 145/1/3 144/1/3
f 152/2/3 144/2/3 151/2/3
f 153/2/3 147/2/3 146/2/3
f 153/1/3 148/1/3 147/1/3
f 153/1/3 149/1/3 148/1/3
f 153/1/3 150/1/3 149/1/3
f 154/1/3 150/1/3 153/1/3
f 155/1/3 141/1/3 140/1/3
f 155/2/3 140/2/3 150/2/3
f 156/1/3 141/1/3 155/1/3
f 157/2/3 142/2/3 141/2/3
f 158/1/3 143/1/3 142/1/3
f 158/2/3 142/2/3 157/2/3
f 159/2/3 151/2/3 143/2/3
f 159/1/3 152/1/3 151/1/3
f 160/1/3 145/1/3 152/1/3
f 160/1/3 152/1/3 159/1/3
f 161/1/3 146/1/3 136/1/3
f 162/2/3 154/2/3 153/2/3
f 162/1/3 146/1/3 161/1/3
f 162/2/3 153/2/3 146/2/3
f 163/1/3 150/1/3 154/1/3
f 163/2/3 154/2/3 162/2/3
f 164/2/3 155/2/3 150/2/3
f 164/1/3 150/1/3 163/1/3
f 164/2/3 156/2/3 155/2/3
f 165/1/3 141/1/3 156/1/3
f 165/2/3 156/2/3 164/2/3
f 166/2/3 157/2/3 141/2/3
f 166/1/3 141/1/3 165/1/3
f 167/1/3 158/1/3 157/1/3
f 167/2/3 157/2/3 166/2/3
f 168/1/3 143/1/3 158/1/3
f 168/1/3 158/1/3 167/1/3
f 168/2/3 159/2/3 143/2/3
f 168/2/3 160/2/3 159/2/3
f 169/1/3 145/1/3 160/1/3
f 169/2/3 160/2/3 168/2/3
f 170/1/3 145/1/3 169/1/3
f 171/1/4 172/1/4 179/1/4
f 172/2/4 173/2/4 179/2/4
f 179/2/4 173/2/4 180/2/4
f 180/2/4 173/2/4 181/2/4
f 181/2/4 173/2/4 182/2/4
f 173/1/4 174/1/4 183/1/4
f 174/2/4 175/2/4 184/2/4
f 183/1/4 174/1/4 184/1/4
f 176/2/4 177/2/4 185/2/4
f 177/1/4 178/1/4 186/1/4
f 185/2/4 177/2/4 186/2/4
f 184/2/4 175/2/4 187/2/4
f 183/2/4 184/2/4 187/2/4
f 175/1/4 176/1/4 188/1/4
f 187/2/4 175/2/4 188/2/4
f 188/1/4 176/1/4 189/1/4
f 176/2/4 185/2/4 190/2/4
f 189/1/4 176/1/4 190/1/4
f 171/1/4 179/1/4 191/1/4
f 179/1/4 180/1/4 191/1/4
f 180/2/4 181/2/4 192/2/4
f 191/1/4 180/1/4 192/1/4
f 181/1/4 182/1/4 193/1/4
f 192/2/4 181/2/4 193/2/4
f 182/2/4 173/2/4 194/2/4
f 193/1/4 182/1/4 194/1/4
f 173/1/4 183/1/4 195/1/4
f 194/2/4 173/2/4 195/2/4
f 183/2/4 187/2/4 196/2/4
f 195/1/4 183/1/4 196/1/4
f 188/1/4 189/1/4 197/1/4
f 196/2/4 187/2/4 197/2/4
f 187/1/4 188/1/4 197/1/4
f 189/2/4 190/2/4 198/2/4
f 197/1/4 189/1/4 198/1/4
f 190/2/4 185/2/4 199/2/4
f 198/2/4 190/2/4 199/2/4
f 185/1/4 186/1/4 199/1/4
f 186/1/4 178/1/4 200/1/4
f 199/1/4 186/1/4 200/1/4
f 201/4/4 202/4/4 212/4/4
f 202/3/4 203/3/4 213/3/4
f 212/4/4 202/4/4 213/4/4
f 203/4/4 204/4/4 214/4/4
f 213/3/4 203/3/4 214/3/4
f 204/3/4 205/3/4 215/3/4
f 214/4/4 204/4/4 215/4/4
f 205/4/4 206/4/4 216/4/4
f 215/3/4 205/3/4 216/3/4
f 206/3/4 207/3/4 217/3/4
f 216/4/4 206/4/4 217/4/4
f 207/4/4 208/4/4 218/4/4
f 217/3/4 207/3/4 218/3/4
f 208/3/4 209/3/4 219/3/4
f 218/4/4 208/4/4 219/4/4
f 209/4/4 210/4/4 220/4/4
f 219/3/4 209/3/4 220/3/4
f 210/3/4 211/3/4 221/3/4
f 220/4/4 210/4/4 221/4/4
f 221/3/4 211/3/4 222/3/4
f 225/1/5 224/1/5 223/1/5
f 226/1/5 224/1/5 225/1/5
f 229/4/5 228/4/5 227/4/5
f 230/4/5 228/4/5 229/4/5
f 231/4/5 229/4/5 227/4/5
f 232/4/5 228/4/5 230/4/5
f 233/4/5 231/4/5 227/4/5
f 233/4/5 232/4/5 231/4/5
f 234/4/5 228/4/5 232/4/5
f 234/4/5 232/4/5 233/4/5
f 235/3/6 236/3/6 237/3/6
f 237/3/6 236/3/6 238/3/6
