# MagicaVoxel @ Ephtracy

# group
o 

# material
mtllib stone_2.mtl
usemtl palette

# normals
vn -1 0 0
vn 1 0 0
vn 0 0 1
vn 0 0 -1
vn 0 -1 0
vn 0 1 0

# texcoords
vt 0.978516 0.5
vt 0.982422 0.5
vt 0.986328 0.5

# verts
v -0.25 -0.25 0.15
v -0.25 -0.25 0.05
v -0.25 -0.25 -0.05
v -0.25 -0.25 -0.15
v -0.25 -0.25 -0.25
v -0.25 -0.25 -0.35
v -0.25 -0.15 -0.15
v -0.25 -0.15 -0.25
v -0.25 -0.15 -0.35
v -0.25 0.15 0.15
v -0.25 0.15 0.05
v -0.25 0.25 0.15
v -0.25 0.25 -0.05
v -0.15 -0.25 0.35
v -0.15 -0.25 0.25
v -0.15 -0.15 0.35
v -0.15 -0.15 0.25
v 0.05 -0.25 0.15
v 0.05 -0.25 -0.05
v 0.05 -0.15 0.15
v 0.05 -0.15 -0.05
v -0.15 0.15 0.15
v -0.15 0.15 0.05
v -0.15 0.15 -0.05
v -0.15 0.25 0.15
v -0.15 0.25 -0.05
v -0.05 -0.25 0.35
v -0.05 -0.25 0.25
v -0.05 -0.25 0.15
v -0.05 -0.25 0.05
v -0.05 -0.25 -0.05
v -0.05 -0.25 -0.15
v -0.05 -0.25 -0.35
v -0.05 -0.15 0.35
v -0.05 -0.15 0.25
v -0.05 -0.15 -0.15
v -0.05 -0.15 -0.35
v -0.05 0.15 0.15
v -0.05 0.15 0.05
v -0.05 0.15 -0.05
v 0.25 -0.25 0.15
v 0.25 -0.25 0.05
v 0.25 -0.25 -0.05
v 0.25 -0.15 0.15
v 0.25 -0.15 0.05
v 0.25 -0.15 -0.05
v -0.15 -0.25 0.35
v -0.15 -0.15 0.35
v -0.05 -0.25 0.35
v -0.05 -0.15 0.35
v -0.25 -0.25 0.15
v -0.25 0.15 0.15
v -0.25 0.25 0.15
v -0.15 -0.25 0.15
v -0.15 0.15 0.15
v -0.15 0.25 0.15
v -0.05 -0.25 0.15
v -0.05 0.15 0.15
v 0.05 -0.25 0.15
v 0.05 -0.15 0.15
v 0.25 -0.25 0.15
v 0.25 -0.15 0.15
v -0.25 -0.25 -0.15
v -0.25 -0.15 -0.15
v -0.15 -0.25 -0.15
v -0.15 -0.15 -0.15
v -0.05 -0.25 -0.15
v -0.05 -0.15 -0.15
v -0.15 -0.25 0.25
v -0.15 -0.15 0.25
v -0.05 -0.25 0.25
v -0.05 -0.15 0.25
v -0.25 -0.25 -0.05
v -0.25 0.25 -0.05
v -0.15 -0.25 -0.05
v -0.15 0.15 -0.05
v -0.15 0.25 -0.05
v -0.05 -0.25 -0.05
v -0.05 0.15 -0.05
v 0.05 -0.25 -0.05
v 0.05 -0.15 -0.05
v 0.15 -0.25 -0.05
v 0.15 -0.15 -0.05
v 0.25 -0.25 -0.05
v 0.25 -0.15 -0.05
v -0.25 -0.25 -0.35
v -0.25 -0.15 -0.35
v -0.05 -0.25 -0.35
v -0.05 -0.15 -0.35
v -0.15 -0.25 0.35
v -0.05 -0.25 0.35
v -0.15 -0.25 0.25
v -0.05 -0.25 0.25
v -0.25 -0.25 0.15
v -0.15 -0.25 0.15
v -0.05 -0.25 0.15
v 0.05 -0.25 0.15
v 0.25 -0.25 0.15
v -0.25 -0.25 0.05
v -0.15 -0.25 0.05
v -0.05 -0.25 0.05
v 0.15 -0.25 0.05
v 0.25 -0.25 0.05
v -0.25 -0.25 -0.05
v -0.15 -0.25 -0.05
v -0.05 -0.25 -0.05
v 0.05 -0.25 -0.05
v 0.15 -0.25 -0.05
v 0.25 -0.25 -0.05
v -0.25 -0.25 -0.15
v -0.15 -0.25 -0.15
v -0.05 -0.25 -0.15
v -0.25 -0.25 -0.25
v -0.15 -0.25 -0.25
v -0.25 -0.25 -0.35
v -0.05 -0.25 -0.35
v -0.15 -0.15 0.35
v -0.05 -0.15 0.35
v -0.15 -0.15 0.25
v -0.05 -0.15 0.25
v 0.05 -0.15 0.15
v 0.25 -0.15 0.15
v 0.15 -0.15 0.05
v 0.25 -0.15 0.05
v 0.05 -0.15 -0.05
v 0.15 -0.15 -0.05
v 0.25 -0.15 -0.05
v -0.25 -0.15 -0.15
v -0.15 -0.15 -0.15
v -0.05 -0.15 -0.15
v -0.25 -0.15 -0.25
v -0.15 -0.15 -0.25
v -0.25 -0.15 -0.35
v -0.05 -0.15 -0.35
v -0.15 0.15 0.15
v -0.05 0.15 0.15
v -0.15 0.15 0.05
v -0.05 0.15 0.05
v -0.15 0.15 -0.05
v -0.05 0.15 -0.05
v -0.25 0.25 0.15
v -0.15 0.25 0.15
v -0.25 0.25 -0.05
v -0.15 0.25 -0.05

# faces
f 7/3/1 5/3/1 4/3/1
f 8/2/1 6/2/1 5/2/1
f 8/3/1 5/3/1 7/3/1
f 9/2/1 6/2/1 8/2/1
f 10/3/1 2/3/1 1/3/1
f 11/1/1 3/1/1 2/1/1
f 11/3/1 2/3/1 10/3/1
f 12/1/1 11/1/1 10/1/1
f 13/1/1 3/1/1 11/1/1
f 13/1/1 11/1/1 12/1/1
f 16/3/1 15/3/1 14/3/1
f 17/3/1 15/3/1 16/3/1
f 20/3/1 19/3/1 18/3/1
f 21/3/1 19/3/1 20/3/1
f 22/1/2 23/1/2 25/1/2
f 23/1/2 24/1/2 25/1/2
f 25/1/2 24/1/2 26/1/2
f 27/3/2 28/3/2 34/3/2
f 34/3/2 28/3/2 35/3/2
f 32/2/2 33/2/2 36/2/2
f 36/2/2 33/2/2 37/2/2
f 29/2/2 30/2/2 38/2/2
f 30/3/2 31/3/2 39/3/2
f 38/2/2 30/2/2 39/2/2
f 39/3/2 31/3/2 40/3/2
f 41/3/2 42/3/2 44/3/2
f 42/2/2 43/2/2 45/2/2
f 44/3/2 42/3/2 45/3/2
f 45/2/2 43/2/2 46/2/2
f 49/3/3 48/3/3 47/3/3
f 50/3/3 48/3/3 49/3/3
f 54/3/3 52/3/3 51/3/3
f 55/1/3 53/1/3 52/1/3
f 55/3/3 52/3/3 54/3/3
f 56/1/3 53/1/3 55/1/3
f 57/2/3 55/2/3 54/2/3
f 58/2/3 55/2/3 57/2/3
f 61/3/3 60/3/3 59/3/3
f 62/3/3 60/3/3 61/3/3
f 65/3/3 64/3/3 63/3/3
f 66/3/3 64/3/3 65/3/3
f 67/2/3 66/2/3 65/2/3
f 68/2/3 66/2/3 67/2/3
f 69/3/4 70/3/4 71/3/4
f 71/3/4 70/3/4 72/3/4
f 73/1/4 74/1/4 75/1/4
f 75/1/4 74/1/4 76/1/4
f 76/1/4 74/1/4 77/1/4
f 75/3/4 76/3/4 78/3/4
f 78/3/4 76/3/4 79/3/4
f 80/3/4 81/3/4 82/3/4
f 82/3/4 81/3/4 83/3/4
f 82/2/4 83/2/4 84/2/4
f 84/2/4 83/2/4 85/2/4
f 86/2/4 87/2/4 88/2/4
f 88/2/4 87/2/4 89/2/4
f 92/3/5 91/3/5 90/3/5
f 93/3/5 91/3/5 92/3/5
f 99/3/5 95/3/5 94/3/5
f 100/2/5 96/2/5 95/2/5
f 100/3/5 95/3/5 99/3/5
f 101/2/5 96/2/5 100/2/5
f 102/3/5 98/3/5 97/3/5
f 103/3/5 98/3/5 102/3/5
f 104/1/5 100/1/5 99/1/5
f 105/3/5 101/3/5 100/3/5
f 105/1/5 100/1/5 104/1/5
f 106/3/5 101/3/5 105/3/5
f 107/3/5 102/3/5 97/3/5
f 108/2/5 103/2/5 102/2/5
f 108/3/5 102/3/5 107/3/5
f 109/2/5 103/2/5 108/2/5
f 113/3/5 111/3/5 110/3/5
f 114/2/5 112/2/5 111/2/5
f 114/3/5 111/3/5 113/3/5
f 115/2/5 114/2/5 113/2/5
f 116/2/5 112/2/5 114/2/5
f 116/2/5 114/2/5 115/2/5
f 117/3/6 118/3/6 119/3/6
f 119/3/6 118/3/6 120/3/6
f 121/3/6 122/3/6 123/3/6
f 123/3/6 122/3/6 124/3/6
f 121/3/6 123/3/6 125/3/6
f 123/2/6 124/2/6 126/2/6
f 125/3/6 123/3/6 126/3/6
f 126/2/6 124/2/6 127/2/6
f 128/3/6 129/3/6 131/3/6
f 129/2/6 130/2/6 132/2/6
f 131/3/6 129/3/6 132/3/6
f 131/2/6 132/2/6 133/2/6
f 132/2/6 130/2/6 134/2/6
f 133/2/6 132/2/6 134/2/6
f 135/2/6 136/2/6 137/2/6
f 137/2/6 136/2/6 138/2/6
f 137/3/6 138/3/6 139/3/6
f 139/3/6 138/3/6 140/3/6
f 141/1/6 142/1/6 143/1/6
f 143/1/6 142/1/6 144/1/6
