# MagicaVoxel @ Ephtracy

# group
o 

# material
mtllib sword_rack_1.mtl
usemtl palette

# normals
vn -1 0 0
vn 1 0 0
vn 0 0 1
vn 0 0 -1
vn 0 -1 0
vn 0 1 0

# texcoords
vt 0.564453 0.5
vt 0.658203 0.5
vt 0.662109 0.5
vt 0.974609 0.5
vt 0.982422 0.5

# verts
v -0.95 -0.45 0.15
v -0.95 -0.45 -0.15
v -0.95 -0.35 0.15
v -0.95 -0.35 -0.05
v -0.95 0.25 -0.05
v -0.95 0.25 -0.15
v -0.85 0.25 -0.05
v -0.85 0.25 -0.15
v -0.85 0.35 -0.05
v -0.85 0.35 -0.15
v -0.75 -0.15 0.15
v -0.75 -0.15 -0.05
v -0.75 -0.05 0.15
v -0.75 -0.05 -0.05
v -0.75 0.35 -0.05
v -0.75 0.35 -0.15
v -0.75 0.45 -0.05
v -0.75 0.45 -0.15
v 0.65 -0.15 0.15
v 0.65 -0.15 -0.05
v 0.65 -0.05 0.15
v 0.65 -0.05 -0.05
v -0.65 -0.15 0.15
v -0.65 -0.15 -0.05
v -0.65 -0.05 0.15
v -0.65 -0.05 -0.05
v 0.75 -0.15 0.15
v 0.75 -0.15 -0.05
v 0.75 -0.05 0.15
v 0.75 -0.05 -0.05
v 0.75 0.35 -0.05
v 0.75 0.35 -0.15
v 0.75 0.45 -0.05
v 0.75 0.45 -0.15
v 0.85 0.25 -0.05
v 0.85 0.25 -0.15
v 0.85 0.35 -0.05
v 0.85 0.35 -0.15
v 0.95 -0.45 0.15
v 0.95 -0.45 -0.15
v 0.95 -0.35 0.15
v 0.95 -0.35 -0.05
v 0.95 0.25 -0.05
v 0.95 0.25 -0.15
v -0.95 -0.45 0.15
v -0.95 -0.35 0.15
v -0.75 -0.15 0.15
v -0.75 -0.05 0.15
v -0.65 -0.15 0.15
v -0.65 -0.05 0.15
v 0.65 -0.15 0.15
v 0.65 -0.05 0.15
v 0.75 -0.15 0.15
v 0.75 -0.05 0.15
v 0.95 -0.45 0.15
v 0.95 -0.35 0.15
v -0.95 -0.35 -0.05
v -0.95 0.25 -0.05
v -0.85 -0.05 -0.05
v -0.85 0.05 -0.05
v -0.85 0.25 -0.05
v -0.85 0.35 -0.05
v -0.75 -0.15 -0.05
v -0.75 -0.05 -0.05
v -0.75 0.35 -0.05
v -0.75 0.45 -0.05
v -0.65 -0.15 -0.05
v -0.65 -0.05 -0.05
v -0.65 0.05 -0.05
v -0.65 0.15 -0.05
v 0.45 -0.35 -0.05
v 0.45 -0.25 -0.05
v 0.45 -0.15 -0.05
v 0.45 0.15 -0.05
v 0.45 0.25 -0.05
v 0.45 0.35 -0.05
v 0.55 -0.35 -0.05
v 0.55 -0.25 -0.05
v 0.55 -0.15 -0.05
v 0.55 -0.05 -0.05
v 0.55 0.05 -0.05
v 0.55 0.15 -0.05
v 0.55 0.25 -0.05
v 0.55 0.35 -0.05
v 0.65 -0.15 -0.05
v 0.65 -0.05 -0.05
v 0.75 -0.15 -0.05
v 0.75 -0.05 -0.05
v 0.75 0.05 -0.05
v 0.75 0.35 -0.05
v 0.75 0.45 -0.05
v 0.85 -0.05 -0.05
v 0.85 0.05 -0.05
v 0.85 0.25 -0.05
v 0.85 0.35 -0.05
v 0.95 -0.35 -0.05
v 0.95 0.25 -0.05
v -0.95 -0.45 -0.15
v -0.95 0.25 -0.15
v -0.85 -0.05 -0.15
v -0.85 0.05 -0.15
v -0.85 0.25 -0.15
v -0.85 0.35 -0.15
v -0.75 0.35 -0.15
v -0.75 0.45 -0.15
v -0.65 -0.15 -0.15
v -0.65 -0.05 -0.15
v -0.65 0.05 -0.15
v -0.65 0.15 -0.15
v 0.45 -0.35 -0.15
v 0.45 -0.25 -0.15
v 0.45 -0.15 -0.15
v 0.45 0.15 -0.15
v 0.45 0.25 -0.15
v 0.45 0.35 -0.15
v 0.55 -0.35 -0.15
v 0.55 -0.25 -0.15
v 0.55 -0.15 -0.15
v 0.55 -0.05 -0.15
v 0.55 0.05 -0.15
v 0.55 0.15 -0.15
v 0.55 0.25 -0.15
v 0.55 0.35 -0.15
v 0.75 -0.05 -0.15
v 0.75 0.05 -0.15
v 0.75 0.35 -0.15
v 0.75 0.45 -0.15
v 0.85 -0.05 -0.15
v 0.85 0.05 -0.15
v 0.85 0.25 -0.15
v 0.85 0.35 -0.15
v 0.95 -0.45 -0.15
v 0.95 0.25 -0.15
v -0.95 -0.45 0.15
v 0.95 -0.45 0.15
v -0.95 -0.45 -0.15
v 0.95 -0.45 -0.15
v -0.75 -0.15 0.15
v -0.65 -0.15 0.15
v 0.65 -0.15 0.15
v 0.75 -0.15 0.15
v -0.75 -0.15 -0.05
v -0.65 -0.15 -0.05
v 0.65 -0.15 -0.05
v 0.75 -0.15 -0.05
v -0.95 -0.35 0.15
v 0.95 -0.35 0.15
v -0.95 -0.35 -0.05
v 0.45 -0.35 -0.05
v 0.55 -0.35 -0.05
v 0.95 -0.35 -0.05
v -0.75 -0.05 0.15
v -0.65 -0.05 0.15
v 0.65 -0.05 0.15
v 0.75 -0.05 0.15
v -0.75 -0.05 -0.05
v -0.65 -0.05 -0.05
v 0.65 -0.05 -0.05
v 0.75 -0.05 -0.05
v -0.95 0.25 -0.05
v -0.85 0.25 -0.05
v 0.85 0.25 -0.05
v 0.95 0.25 -0.05
v -0.95 0.25 -0.15
v -0.85 0.25 -0.15
v 0.85 0.25 -0.15
v 0.95 0.25 -0.15
v -0.85 0.35 -0.05
v -0.75 0.35 -0.05
v 0.75 0.35 -0.05
v 0.85 0.35 -0.05
v -0.85 0.35 -0.15
v -0.75 0.35 -0.15
v 0.75 0.35 -0.15
v 0.85 0.35 -0.15
v -0.75 0.45 -0.05
v 0.75 0.45 -0.05
v -0.75 0.45 -0.15
v 0.75 0.45 -0.15

# faces
f 3/2/1 2/2/1 1/2/1
f 4/2/1 2/2/1 3/2/1
f 5/2/1 2/2/1 4/2/1
f 6/2/1 2/2/1 5/2/1
f 9/2/1 8/2/1 7/2/1
f 10/2/1 8/2/1 9/2/1
f 13/1/1 12/1/1 11/1/1
f 14/1/1 12/1/1 13/1/1
f 17/2/1 16/2/1 15/2/1
f 18/2/1 16/2/1 17/2/1
f 21/1/1 20/1/1 19/1/1
f 22/1/1 20/1/1 21/1/1
f 23/1/2 24/1/2 25/1/2
f 25/1/2 24/1/2 26/1/2
f 27/1/2 28/1/2 29/1/2
f 29/1/2 28/1/2 30/1/2
f 31/2/2 32/2/2 33/2/2
f 33/2/2 32/2/2 34/2/2
f 35/2/2 36/2/2 37/2/2
f 37/2/2 36/2/2 38/2/2
f 39/2/2 40/2/2 41/2/2
f 41/2/2 40/2/2 42/2/2
f 42/2/2 40/2/2 43/2/2
f 43/2/2 40/2/2 44/2/2
f 49/1/3 48/1/3 47/1/3
f 50/1/3 48/1/3 49/1/3
f 53/1/3 52/1/3 51/1/3
f 54/1/3 52/1/3 53/1/3
f 55/2/3 46/2/3 45/2/3
f 56/2/3 46/2/3 55/2/3
f 59/2/3 58/2/3 57/2/3
f 60/2/3 58/2/3 59/2/3
f 61/2/3 58/2/3 60/2/3
f 63/2/3 59/2/3 57/2/3
f 64/5/3 60/5/3 59/5/3
f 64/2/3 59/2/3 63/2/3
f 65/2/3 62/2/3 61/2/3
f 65/2/3 61/2/3 60/2/3
f 67/2/3 63/2/3 57/2/3
f 68/5/3 60/5/3 64/5/3
f 69/2/3 66/2/3 65/2/3
f 69/2/3 65/2/3 60/2/3
f 69/5/3 60/5/3 68/5/3
f 70/2/3 66/2/3 69/2/3
f 71/2/3 67/2/3 57/2/3
f 72/2/3 67/2/3 71/2/3
f 73/5/3 68/5/3 67/5/3
f 73/2/3 67/2/3 72/2/3
f 73/5/3 69/5/3 68/5/3
f 73/5/3 70/5/3 69/5/3
f 74/2/3 66/2/3 70/2/3
f 74/5/3 70/5/3 73/5/3
f 75/2/3 66/2/3 74/2/3
f 76/2/3 66/2/3 75/2/3
f 77/4/3 72/4/3 71/4/3
f 78/3/3 73/3/3 72/3/3
f 78/4/3 72/4/3 77/4/3
f 79/4/3 74/4/3 73/4/3
f 79/3/3 73/3/3 78/3/3
f 80/4/3 74/4/3 79/4/3
f 81/4/3 74/4/3 80/4/3
f 82/3/3 75/3/3 74/3/3
f 82/4/3 74/4/3 81/4/3
f 83/4/3 76/4/3 75/4/3
f 83/3/3 75/3/3 82/3/3
f 84/2/3 66/2/3 76/2/3
f 84/4/3 76/4/3 83/4/3
f 85/2/3 78/2/3 77/2/3
f 85/2/3 79/2/3 78/2/3
f 85/2/3 80/2/3 79/2/3
f 86/3/3 81/3/3 80/3/3
f 86/2/3 80/2/3 85/2/3
f 87/2/3 85/2/3 77/2/3
f 88/3/3 81/3/3 86/3/3
f 89/2/3 83/2/3 82/2/3
f 89/2/3 82/2/3 81/2/3
f 89/3/3 81/3/3 88/3/3
f 89/2/3 84/2/3 83/2/3
f 90/2/3 66/2/3 84/2/3
f 90/2/3 84/2/3 89/2/3
f 91/2/3 66/2/3 90/2/3
f 92/2/3 88/2/3 87/2/3
f 92/4/3 89/4/3 88/4/3
f 93/2/3 90/2/3 89/2/3
f 93/4/3 89/4/3 92/4/3
f 94/2/3 90/2/3 93/2/3
f 95/2/3 90/2/3 94/2/3
f 96/2/3 92/2/3 87/2/3
f 96/2/3 87/2/3 77/2/3
f 96/2/3 94/2/3 93/2/3
f 96/2/3 93/2/3 92/2/3
f 97/2/3 94/2/3 96/2/3
f 98/2/4 99/2/4 100/2/4
f 100/2/4 99/2/4 101/2/4
f 101/2/4 99/2/4 102/2/4
f 101/2/4 102/2/4 104/2/4
f 102/2/4 103/2/4 104/2/4
f 98/2/4 100/2/4 106/2/4
f 100/5/4 101/5/4 107/5/4
f 106/2/4 100/2/4 107/2/4
f 104/2/4 105/2/4 108/2/4
f 107/5/4 101/5/4 108/5/4
f 101/2/4 104/2/4 108/2/4
f 108/2/4 105/2/4 109/2/4
f 98/2/4 106/2/4 110/2/4
f 110/2/4 106/2/4 111/2/4
f 106/5/4 107/5/4 112/5/4
f 111/2/4 106/2/4 112/2/4
f 107/5/4 108/5/4 112/5/4
f 108/5/4 109/5/4 112/5/4
f 109/2/4 105/2/4 113/2/4
f 112/5/4 109/5/4 113/5/4
f 113/2/4 105/2/4 114/2/4
f 114/2/4 105/2/4 115/2/4
f 110/4/4 111/4/4 116/4/4
f 98/2/4 110/2/4 116/2/4
f 111/3/4 112/3/4 117/3/4
f 116/4/4 111/4/4 117/4/4
f 112/4/4 113/4/4 118/4/4
f 117/3/4 112/3/4 118/3/4
f 118/4/4 113/4/4 119/4/4
f 119/4/4 113/4/4 120/4/4
f 113/3/4 114/3/4 121/3/4
f 120/4/4 113/4/4 121/4/4
f 114/4/4 115/4/4 122/4/4
f 121/3/4 114/3/4 122/3/4
f 115/2/4 105/2/4 123/2/4
f 122/4/4 115/4/4 123/4/4
f 116/2/4 117/2/4 124/2/4
f 119/3/4 120/3/4 124/3/4
f 117/2/4 118/2/4 124/2/4
f 118/2/4 119/2/4 124/2/4
f 121/2/4 122/2/4 125/2/4
f 124/3/4 120/3/4 125/3/4
f 120/2/4 121/2/4 125/2/4
f 122/2/4 123/2/4 125/2/4
f 123/2/4 105/2/4 126/2/4
f 125/2/4 123/2/4 126/2/4
f 126/2/4 105/2/4 127/2/4
f 116/2/4 124/2/4 128/2/4
f 124/4/4 125/4/4 128/4/4
f 125/2/4 126/2/4 129/2/4
f 128/4/4 125/4/4 129/4/4
f 129/2/4 126/2/4 130/2/4
f 130/2/4 126/2/4 131/2/4
f 98/2/4 116/2/4 132/2/4
f 116/2/4 128/2/4 132/2/4
f 129/2/4 130/2/4 132/2/4
f 128/2/4 129/2/4 132/2/4
f 132/2/4 130/2/4 133/2/4
f 136/2/5 135/2/5 134/2/5
f 137/2/5 135/2/5 136/2/5
f 142/1/5 139/1/5 138/1/5
f 143/1/5 139/1/5 142/1/5
f 144/1/5 141/1/5 140/1/5
f 145/1/5 141/1/5 144/1/5
f 146/2/6 147/2/6 148/2/6
f 148/2/6 147/2/6 149/2/6
f 149/2/6 147/2/6 150/2/6
f 150/2/6 147/2/6 151/2/6
f 152/1/6 153/1/6 156/1/6
f 156/1/6 153/1/6 157/1/6
f 154/1/6 155/1/6 158/1/6
f 158/1/6 155/1/6 159/1/6
f 160/2/6 161/2/6 164/2/6
f 164/2/6 161/2/6 165/2/6
f 162/2/6 163/2/6 166/2/6
f 166/2/6 163/2/6 167/2/6
f 168/2/6 169/2/6 172/2/6
f 172/2/6 169/2/6 173/2/6
f 170/2/6 171/2/6 174/2/6
f 174/2/6 171/2/6 175/2/6
f 176/2/6 177/2/6 178/2/6
f 178/2/6 177/2/6 179/2/6
