# MagicaVoxel @ Ephtracy

# group
o 

# material
mtllib wall_dirt_1.mtl
usemtl palette

# normals
vn -1 0 0
vn 1 0 0
vn 0 0 1
vn 0 0 -1
vn 0 -1 0
vn 0 1 0

# texcoords
vt 0.658203 0.5
vt 0.662109 0.5
vt 0.666016 0.5
vt 0.669922 0.5
vt 0.689453 0.5
vt 0.845703 0.5

# verts
v -1.6 -1.6 1.6
v -1.6 -1.6 -1.6
v -1.6 -0.9 1.6
v -1.6 -0.9 -1.6
v -1.6 -0.6 1.6
v -1.6 -0.6 -1.6
v -1.6 -0.1 1.6
v -1.6 -0.1 -1.6
v -1.6 0 1.6
v -1.6 0 -1.6
v -1.6 0.4 1.6
v -1.6 0.4 -1.6
v -1.6 0.6 1.6
v -1.6 0.6 -1.6
v 1.6 -1.6 1.6
v 1.6 -1.6 -1.6
v 1.6 -0.9 1.6
v 1.6 -0.9 -1.6
v 1.6 -0.6 1.6
v 1.6 -0.6 -1.6
v 1.6 -0.1 1.6
v 1.6 -0.1 -1.6
v 1.6 0 1.6
v 1.6 0 -1.6
v 1.6 0.4 1.6
v 1.6 0.4 -1.6
v 1.6 0.6 1.6
v 1.6 0.6 -1.6
v -1.6 -1.6 1.6
v -1.6 -0.9 1.6
v -1.6 -0.6 1.6
v -1.6 -0.1 1.6
v -1.6 0 1.6
v -1.6 0.4 1.6
v -1.6 0.6 1.6
v -1.5 -1.2 1.6
v -1.5 -0.9 1.6
v -1.5 -0.6 1.6
v -1.5 -0.5 1.6
v -1.4 -1.3 1.6
v -1.4 -1.2 1.6
v -1.4 0 1.6
v -1.4 0.1 1.6
v -1.1 -0.5 1.6
v -1.1 -0.4 1.6
v -0.9 -1.3 1.6
v -0.9 -1.1 1.6
v -0.8 -0.4 1.6
v -0.8 -0.3 1.6
v -0.6 0.1 1.6
v -0.6 0.2 1.6
v -0.3 -0.4 1.6
v -0.3 -0.3 1.6
v 0 -1.1 1.6
v 0 -1 1.6
v 0.1 -0.5 1.6
v 0.1 -0.4 1.6
v 0.2 0.1 1.6
v 0.2 0.2 1.6
v 0.5 0 1.6
v 0.5 0.1 1.6
v 0.6 -0.6 1.6
v 0.6 -0.5 1.6
v 0.8 -1 1.6
v 0.8 -0.9 1.6
v 1.6 -1.6 1.6
v 1.6 -0.9 1.6
v 1.6 -0.6 1.6
v 1.6 -0.1 1.6
v 1.6 0 1.6
v 1.6 0.4 1.6
v 1.6 0.6 1.6
v -1.6 -1.6 -1.6
v -1.6 -0.9 -1.6
v -1.6 -0.6 -1.6
v -1.6 -0.1 -1.6
v -1.6 0 -1.6
v -1.6 0.4 -1.6
v -1.6 0.6 -1.6
v -1.5 -1.2 -1.6
v -1.5 -0.9 -1.6
v -1.5 -0.6 -1.6
v -1.5 -0.5 -1.6
v -1.4 -1.3 -1.6
v -1.4 -1.2 -1.6
v -1.4 0 -1.6
v -1.4 0.1 -1.6
v -1.1 -0.5 -1.6
v -1.1 -0.4 -1.6
v -0.9 -1.3 -1.6
v -0.9 -1.1 -1.6
v -0.8 -0.4 -1.6
v -0.8 -0.3 -1.6
v -0.6 0.1 -1.6
v -0.6 0.2 -1.6
v -0.3 -0.4 -1.6
v -0.3 -0.3 -1.6
v 0 -1.1 -1.6
v 0 -1 -1.6
v 0.1 -0.5 -1.6
v 0.1 -0.4 -1.6
v 0.2 0.1 -1.6
v 0.2 0.2 -1.6
v 0.5 0 -1.6
v 0.5 0.1 -1.6
v 0.6 -0.6 -1.6
v 0.6 -0.5 -1.6
v 0.8 -1 -1.6
v 0.8 -0.9 -1.6
v 1.6 -1.6 -1.6
v 1.6 -0.9 -1.6
v 1.6 -0.6 -1.6
v 1.6 -0.1 -1.6
v 1.6 0 -1.6
v 1.6 0.4 -1.6
v 1.6 0.6 -1.6
v -1.6 -1.6 1.6
v 1.6 -1.6 1.6
v -1.6 -1.6 -1.6
v 1.6 -1.6 -1.6
v -1.6 0.6 1.6
v 1.6 0.6 1.6
v -1.6 0.6 -1.6
v 1.6 0.6 -1.6

# faces
f 3/1/1 2/1/1 1/1/1
f 4/1/1 2/1/1 3/1/1
f 5/2/1 4/2/1 3/2/1
f 6/2/1 4/2/1 5/2/1
f 7/3/1 6/3/1 5/3/1
f 8/3/1 6/3/1 7/3/1
f 9/4/1 8/4/1 7/4/1
f 10/4/1 8/4/1 9/4/1
f 11/6/1 10/6/1 9/6/1
f 12/6/1 10/6/1 11/6/1
f 13/5/1 12/5/1 11/5/1
f 14/5/1 12/5/1 13/5/1
f 15/1/2 16/1/2 17/1/2
f 17/1/2 16/1/2 18/1/2
f 17/2/2 18/2/2 19/2/2
f 19/2/2 18/2/2 20/2/2
f 19/3/2 20/3/2 21/3/2
f 21/3/2 20/3/2 22/3/2
f 21/4/2 22/4/2 23/4/2
f 23/4/2 22/4/2 24/4/2
f 23/6/2 24/6/2 25/6/2
f 25/6/2 24/6/2 26/6/2
f 25/5/2 26/5/2 27/5/2
f 27/5/2 26/5/2 28/5/2
f 36/1/3 30/1/3 29/1/3
f 37/2/3 31/2/3 30/2/3
f 37/1/3 30/1/3 36/1/3
f 38/3/3 32/3/3 31/3/3
f 38/2/3 31/2/3 37/2/3
f 39/3/3 32/3/3 38/3/3
f 40/1/3 36/1/3 29/1/3
f 41/2/3 37/2/3 36/2/3
f 41/1/3 36/1/3 40/1/3
f 41/2/3 38/2/3 37/2/3
f 41/2/3 39/2/3 38/2/3
f 42/4/3 33/4/3 32/4/3
f 42/6/3 34/6/3 33/6/3
f 43/6/3 34/6/3 42/6/3
f 44/3/3 32/3/3 39/3/3
f 44/2/3 39/2/3 41/2/3
f 44/2/3 41/2/3 40/2/3
f 45/3/3 32/3/3 44/3/3
f 46/1/3 40/1/3 29/1/3
f 46/2/3 44/2/3 40/2/3
f 46/2/3 45/2/3 44/2/3
f 47/2/3 45/2/3 46/2/3
f 48/3/3 32/3/3 45/3/3
f 48/2/3 45/2/3 47/2/3
f 49/3/3 32/3/3 48/3/3
f 50/6/3 34/6/3 43/6/3
f 50/4/3 43/4/3 42/4/3
f 51/6/3 34/6/3 50/6/3
f 52/2/3 49/2/3 48/2/3
f 52/2/3 48/2/3 47/2/3
f 53/3/3 32/3/3 49/3/3
f 53/2/3 49/2/3 52/2/3
f 54/2/3 52/2/3 47/2/3
f 54/1/3 47/1/3 46/1/3
f 55/2/3 52/2/3 54/2/3
f 56/2/3 52/2/3 55/2/3
f 57/3/3 53/3/3 52/3/3
f 57/2/3 52/2/3 56/2/3
f 58/4/3 51/4/3 50/4/3
f 58/4/3 50/4/3 42/4/3
f 59/6/3 34/6/3 51/6/3
f 59/4/3 51/4/3 58/4/3
f 60/4/3 58/4/3 42/4/3
f 60/4/3 42/4/3 32/4/3
f 61/6/3 59/6/3 58/6/3
f 61/4/3 58/4/3 60/4/3
f 62/2/3 56/2/3 55/2/3
f 63/3/3 57/3/3 56/3/3
f 63/2/3 56/2/3 62/2/3
f 64/2/3 62/2/3 55/2/3
f 64/1/3 55/1/3 54/1/3
f 65/2/3 62/2/3 64/2/3
f 66/1/3 46/1/3 29/1/3
f 66/1/3 54/1/3 46/1/3
f 66/1/3 65/1/3 64/1/3
f 66/1/3 64/1/3 54/1/3
f 67/2/3 62/2/3 65/2/3
f 67/1/3 65/1/3 66/1/3
f 68/3/3 63/3/3 62/3/3
f 68/2/3 62/2/3 67/2/3
f 69/3/3 32/3/3 53/3/3
f 69/3/3 63/3/3 68/3/3
f 69/4/3 60/4/3 32/4/3
f 69/3/3 53/3/3 57/3/3
f 69/3/3 57/3/3 63/3/3
f 70/6/3 61/6/3 60/6/3
f 70/4/3 60/4/3 69/4/3
f 71/5/3 35/5/3 34/5/3
f 71/6/3 61/6/3 70/6/3
f 71/6/3 59/6/3 61/6/3
f 71/6/3 34/6/3 59/6/3
f 72/5/3 35/5/3 71/5/3
f 73/1/4 74/1/4 80/1/4
f 74/2/4 75/2/4 81/2/4
f 80/1/4 74/1/4 81/1/4
f 75/3/4 76/3/4 82/3/4
f 81/2/4 75/2/4 82/2/4
f 82/3/4 76/3/4 83/3/4
f 73/1/4 80/1/4 84/1/4
f 80/2/4 81/2/4 85/2/4
f 84/1/4 80/1/4 85/1/4
f 81/2/4 82/2/4 85/2/4
f 82/2/4 83/2/4 85/2/4
f 76/4/4 77/4/4 86/4/4
f 77/6/4 78/6/4 86/6/4
f 86/6/4 78/6/4 87/6/4
f 83/3/4 76/3/4 88/3/4
f 85/2/4 83/2/4 88/2/4
f 84/2/4 85/2/4 88/2/4
f 88/3/4 76/3/4 89/3/4
f 73/1/4 84/1/4 90/1/4
f 84/2/4 88/2/4 90/2/4
f 88/2/4 89/2/4 90/2/4
f 90/2/4 89/2/4 91/2/4
f 89/3/4 76/3/4 92/3/4
f 91/2/4 89/2/4 92/2/4
f 92/3/4 76/3/4 93/3/4
f 87/6/4 78/6/4 94/6/4
f 86/4/4 87/4/4 94/4/4
f 94/6/4 78/6/4 95/6/4
f 92/2/4 93/2/4 96/2/4
f 91/2/4 92/2/4 96/2/4
f 93/3/4 76/3/4 97/3/4
f 96/2/4 93/2/4 97/2/4
f 91/2/4 96/2/4 98/2/4
f 90/1/4 91/1/4 98/1/4
f 98/2/4 96/2/4 99/2/4
f 99/2/4 96/2/4 100/2/4
f 96/3/4 97/3/4 101/3/4
f 100/2/4 96/2/4 101/2/4
f 94/4/4 95/4/4 102/4/4
f 86/4/4 94/4/4 102/4/4
f 95/6/4 78/6/4 103/6/4
f 102/4/4 95/4/4 103/4/4
f 86/4/4 102/4/4 104/4/4
f 76/4/4 86/4/4 104/4/4
f 102/6/4 103/6/4 105/6/4
f 104/4/4 102/4/4 105/4/4
f 99/2/4 100/2/4 106/2/4
f 100/3/4 101/3/4 107/3/4
f 106/2/4 100/2/4 107/2/4
f 99/2/4 106/2/4 108/2/4
f 98/1/4 99/1/4 108/1/4
f 108/2/4 106/2/4 109/2/4
f 73/1/4 90/1/4 110/1/4
f 90/1/4 98/1/4 110/1/4
f 108/1/4 109/1/4 110/1/4
f 98/1/4 108/1/4 110/1/4
f 109/2/4 106/2/4 111/2/4
f 110/1/4 109/1/4 111/1/4
f 106/3/4 107/3/4 112/3/4
f 111/2/4 106/2/4 112/2/4
f 97/3/4 76/3/4 113/3/4
f 112/3/4 107/3/4 113/3/4
f 76/4/4 104/4/4 113/4/4
f 101/3/4 97/3/4 113/3/4
f 107/3/4 101/3/4 113/3/4
f 104/6/4 105/6/4 114/6/4
f 113/4/4 104/4/4 114/4/4
f 78/5/4 79/5/4 115/5/4
f 114/6/4 105/6/4 115/6/4
f 105/6/4 103/6/4 115/6/4
f 103/6/4 78/6/4 115/6/4
f 115/5/4 79/5/4 116/5/4
f 119/1/5 118/1/5 117/1/5
f 120/1/5 118/1/5 119/1/5
f 121/5/6 122/5/6 123/5/6
f 123/5/6 122/5/6 124/5/6
